<?xml version="1.0" encoding="UTF-8"?>
<svg version="1.1" xmlns="http://www.w3.org/2000/svg" width="1040" height="662">
<path d="M0 0 C343.2 0 686.4 0 1040 0 C1040 218.46 1040 436.92 1040 662 C696.8 662 353.6 662 0 662 C0 443.54 0 225.08 0 0 Z " fill="#92ABBB" transform="translate(0,0)"/>
<path name="egy" d="M0 0 C1.8125 2.0625 1.8125 2.0625 3 4 C5.64 3.67 8.28 3.34 11 3 C11.433125 3.9590625 11.433125 3.9590625 11.875 4.9375 C12.82823451 7.15206079 12.82823451 7.15206079 15 8 C15.33 8.99 15.66 9.98 16 11 C16.70125 10.89300781 17.4025 10.78601562 18.125 10.67578125 C24.70801391 9.8439602 29.07655956 9.87673141 35 13 C36.5 15.1875 36.5 15.1875 37 17 C40.08919284 16.65675635 41.61414697 16.3991583 43.8125 14.125 C46.82264321 11.20086088 49.91974964 9.90587648 54 9 C57.64954695 9.23931455 60.54370605 9.84790202 64 11 C62.25 14.875 62.25 14.875 60 16 C63.16115776 14.63016497 63.9927092 14.0109362 66 11 C66.67863055 9.0040278 67.34641919 7.00431449 68 5 C70.17769714 2.82230286 75.1675794 3.67727735 78.1171875 3.57421875 C81.12211321 3.26979456 81.12211321 3.26979456 82.8828125 0.95703125 C83.25148438 0.31121094 83.62015625 -0.33460937 84 -1 C85.67667436 -0.35891863 87.34089996 0.31471955 89 1 C90.010625 1.350625 91.02125 1.70125 92.0625 2.0625 C95.80409875 4.530363 96.36052935 6.83358284 97.921875 10.90234375 C99.52725084 14.02584674 101.77107301 14.89922944 105 16 C105 15.34 105 14.68 105 14 C106.65 14 108.3 14 110 14 C110.10957031 14.80824219 110.21914063 15.61648437 110.33203125 16.44921875 C110.56986328 18.05216797 110.56986328 18.05216797 110.8125 19.6875 C111.03873047 21.27111328 111.03873047 21.27111328 111.26953125 22.88671875 C112.02964663 26.1263549 113.24757689 28.20259636 115 31 C115.5546875 33.1328125 115.5546875 33.1328125 115.875 35.125 C116.59982134 38.51133156 116.59982134 38.51133156 119.4375 40.625 C120.283125 41.07875 121.12875 41.5325 122 42 C122.350625 42.99 122.70125 43.98 123.0625 45 C125.87354413 49.35258445 129.19226685 49.49870438 134.08984375 50.5546875 C137.16832439 51.10083967 137.16832439 51.10083967 141 51 C141.33 49.35 141.66 47.7 142 46 C143.0725 46.020625 144.145 46.04125 145.25 46.0625 C149.85740485 45.98570992 154.56506682 45.43493318 158 42 C159.0725 42.020625 160.145 42.04125 161.25 42.0625 C164.80208608 42.00329857 166.85105168 41.52676282 170 40 C170.33 40.33 170.66 40.66 171 41 C172.99958364 41.04080783 175.00045254 41.04254356 177 41 C177 41.66 177 42.32 177 43 C179.64 42.67 182.28 42.34 185 42 C185 40.35 185 38.7 185 37 C186.26691507 36.32591692 187.53870749 35.66099503 188.8125 35 C189.52019531 34.62875 190.22789062 34.2575 190.95703125 33.875 C194.99827215 32.14414348 198.05713209 33.59809141 202 35 C201.835 36.0725 201.67 37.145 201.5 38.25 C200.85370927 43.09718047 201.13104071 47.22072389 202 52 C202 50.35 202 48.7 202 47 C205.96 47.495 205.96 47.495 210 48 C210.12375 49.7015625 210.12375 49.7015625 210.25 51.4375 C211.19076293 58.93710308 215.04136668 65.66618669 219 72 C219.66 72.33 220.32 72.66 221 73 C221 72.34 221 71.68 221 71 C225.05089111 70.29888423 228.05194427 69.91088118 232 71 C234.18703385 70.62092718 234.18703385 70.62092718 236 70 C236 70.66 236 71.32 236 72 C236.66 72 237.32 72 238 72 C238.268125 72.78375 238.53625 73.5675 238.8125 74.375 C239.84814432 77.28114923 239.84814432 77.28114923 243 79 C243 79.66 243 80.32 243 81 C243.99 81.33 244.98 81.66 246 82 C246.12375 83.134375 246.2475 84.26875 246.375 85.4375 C246.58125 86.613125 246.7875 87.78875 247 89 C247.66 89.33 248.32 89.66 249 90 C249.44921875 92.46875 249.44921875 92.46875 249.6875 95.5 C249.77386719 96.5003125 249.86023438 97.500625 249.94921875 98.53125 C249.96597656 99.3459375 249.98273437 100.160625 250 101 C249.67 101.33 249.34 101.66 249 102 C250.32 102.66 251.64 103.32 253 104 C253 103.34 253 102.68 253 102 C253.87011719 102.17789063 253.87011719 102.17789063 254.7578125 102.359375 C260.20612791 103.28229643 260.20612791 103.28229643 265.1875 101.0625 C266.5796875 100.0415625 266.5796875 100.0415625 268 99 C271.1875 98.75 271.1875 98.75 274 99 C274.99 99 275.98 99 277 99 C279 99 281 99 283 99 C283.268125 100.051875 283.53625 101.10375 283.8125 102.1875 C284.87446215 105.59695742 285.95409818 108.10163909 288 111 C288.66 111.33 289.32 111.66 290 112 C290.61528766 117.07612318 288.61658349 119.82982006 286 124 C285.34 124 284.68 124 284 124 C284.70339566 126.50965614 284.70339566 126.50965614 286 129 C287.96128755 129.8237956 287.96128755 129.8237956 290 130 C290.66 130.33 291.32 130.66 292 131 C292 131.99 292 132.98 292 134 C291.34 134 290.68 134 290 134 C289.7525 134.86625 289.505 135.7325 289.25 136.625 C286.14394816 145.01133997 286.14394816 145.01133997 281.73828125 147.04296875 C279.50572142 147.7894919 277.28661365 148.44300437 275 149 C275.33 151.64 275.66 154.28 276 157 C269.375 160.125 269.375 160.125 266 159 C266 159.99 266 160.98 266 162 C265.01 162.33 264.02 162.66 263 163 C261.89363605 165.39068734 261.89363605 165.39068734 261 168 C259 171 259 171 256 172 C248.4179129 172.72605485 242.86769764 172.71830353 236.64453125 168.1328125 C234.9294515 166.79980223 234.9294515 166.79980223 232.1875 166.375 C229.80163016 166.82128663 229.80163016 166.82128663 228.375 169.125 C227.92125 170.07375 227.4675 171.0225 227 172 C226.1646875 173.6396875 226.1646875 173.6396875 225.3125 175.3125 C224.6628125 176.6428125 224.6628125 176.6428125 224 178 C220.6477382 178.06573062 217.54304868 178.11107814 214.25 177.4375 C211.84506244 176.77859647 211.84506244 176.77859647 209 178 C209 178.66 209 179.32 209 180 C208.236875 180.20625 207.47375 180.4125 206.6875 180.625 C203.16476567 182.42732919 202.67676182 184.50067099 201 188 C200.33355469 188.28746094 199.66710937 188.57492188 198.98046875 188.87109375 C196.75951228 189.84204401 196.75951228 189.84204401 196.2421875 192.34765625 C196.12101562 193.24355469 195.99984375 194.13945312 195.875 195.0625 C195.4921875 197.78515625 195.4921875 197.78515625 195 200 C194.34 200.33 193.68 200.66 193 201 C192.31270746 203.11846285 192.31270746 203.11846285 191.875 205.5625 C191.70742188 206.38878906 191.53984375 207.21507812 191.3671875 208.06640625 C191.24601562 208.70449219 191.12484375 209.34257812 191 210 C187.12315913 211.19287411 184.08378077 212 180 212 C179.64228516 213.12921875 179.64228516 213.12921875 179.27734375 214.28125 C177.7973862 217.43125138 176.39299825 218.52934112 173.5625 220.5 C168.82699251 223.96484847 168.82699251 223.96484847 166 229 C166.31932971 231.00228361 166.6551006 233.00196208 167 235 C167.79280377 251.05888564 167.79280377 251.05888564 165 256 C162.51676106 257.14106578 159.99915137 257.97926873 157.40625 258.83984375 C153.92727691 260.51720577 153.1503109 262.64707663 151.796875 266.1328125 C151 268 151 268 148.875 269.875 C146.23349756 272.86870276 146.05674968 275.87500732 145.4921875 279.7578125 C145 282 145 282 143 284 C142.98657889 286.40399483 142.98657889 286.40399483 143.25 289.125 C143.37233861 294.65182667 142.0936233 296.97619897 138.5 301.02734375 C136.81045246 303.24927476 136.32753949 304.98955577 135.6875 307.6875 C134.8922299 310.42676366 134.50399225 311.65026953 132.13671875 313.29296875 C130.59248886 314.0317454 129.04408814 314.76185077 127.4921875 315.484375 C122.05039726 318.79380229 117.01618271 324.95145188 115 331 C112.49609375 332.16796875 112.49609375 332.16796875 109.4375 333.1875 C107.91962891 333.70376953 107.91962891 333.70376953 106.37109375 334.23046875 C105.58863281 334.48441406 104.80617188 334.73835938 104 335 C113.92307692 331.69230769 113.92307692 331.69230769 119 332 C119.66 333.32 120.32 334.64 121 336 C120.2884375 336.804375 120.2884375 336.804375 119.5625 337.625 C117.71813924 340.42842836 117.37543153 342.69620258 117 346 C116.34 346 115.68 346 115 346 C114.938125 346.8971875 114.938125 346.8971875 114.875 347.8125 C114 350 114 350 110.9375 351.75 C109.968125 352.1625 108.99875 352.575 108 353 C108.10699219 353.75925781 108.21398437 354.51851563 108.32421875 355.30078125 C108.44410156 356.29464844 108.56398438 357.28851563 108.6875 358.3125 C108.87892578 359.79169922 108.87892578 359.79169922 109.07421875 361.30078125 C109 364 109 364 107.73828125 365.76953125 C106 367 106 367 102.5 368.375 C97.81533156 370.55002463 96.76135327 373.15900195 94.83203125 377.82421875 C94.49558594 378.76910156 94.15914062 379.71398437 93.8125 380.6875 C93.46832031 381.64011719 93.12414062 382.59273438 92.76953125 383.57421875 C91.89920669 385.89357664 91.89920669 385.89357664 92 388 C94.46326712 389.6446674 94.46326712 389.6446674 97 391 C96.70197895 394.47691229 95.9882377 396.01512296 93.8125 398.8125 C90.54121494 401.35683282 89.03884885 401.46963359 85 401 C85.12375 402.010625 85.2475 403.02125 85.375 404.0625 C84.93749405 408.65631249 83.81672893 410.46602775 80.7265625 413.75390625 C79 415 79 415 75.75 414.9375 C74.8425 414.628125 73.935 414.31875 73 414 C72.34 414 71.68 414 71 414 C68.37962256 417.15986691 66.93660051 418.94334175 67.1875 423.125 C66.9284696 428.47829493 64.42318689 431.71457558 61.53125 436.1328125 C59.91861888 439.152382 59.5014375 440.64603408 60 444 C60.66 444.94875 61.32 445.8975 62 446.875 C64.3691025 450.57672266 64.42295243 452.68588522 64 457 C62.46068813 458.53931187 60.88589455 458.03774626 58.75 458.0625 C55.87134077 458.35633444 54.4457934 458.59195112 52.29296875 460.5625 C48.95388561 465.4893316 48.69867193 469.17432405 49 475 C48.34 475.66 47.68 476.32 47 477 C46.60235737 478.98821313 46.26224651 480.98944339 46 483 C44.7625 483.20625 43.525 483.4125 42.25 483.625 C38.62251768 484.50943915 38.0944526 484.88069145 35.625 488 C35.08875 488.99 34.5525 489.98 34 491 C32 493 32 493 29.375 493.125 C28.59125 493.08375 27.8075 493.0425 27 493 C26.67 491.68 26.34 490.36 26 489 C25.34 489.33 24.68 489.66 24 490 C21.0625 490.25 21.0625 490.25 18 490 C16.375 488.5 16.375 488.5 15 487 C13.68 487 12.36 487 11 487 C10.67 487.66 10.34 488.32 10 489 C5.25 488.25 5.25 488.25 3 486 C-1.54978246 486.34998327 -5.81799703 487.15213822 -10 489 C-11.40854666 490.81701858 -11.40854666 490.81701858 -12 493 C-12.226875 493.61875 -12.45375 494.2375 -12.6875 494.875 C-13.10758847 497.73160158 -12.57478425 500.18994366 -12 503 C-13.98 503.33 -15.96 503.66 -18 504 C-18.4021875 505.6396875 -18.4021875 505.6396875 -18.8125 507.3125 C-20.4717833 512.46501129 -20.4717833 512.46501129 -23 514 C-24.99954746 514.04254356 -27.00041636 514.04080783 -29 514 C-31.1544816 514.94404597 -31.1544816 514.94404597 -33 516 C-33.50789063 515.54109375 -34.01578125 515.0821875 -34.5390625 514.609375 C-40.57832518 508.42773947 -40.57832518 508.42773947 -48 505 C-51.35970434 507.23980289 -51.68695425 508.34222968 -53 512 C-53.33 512.33 -53.66 512.66 -54 513 C-55.9609375 512.9140625 -55.9609375 512.9140625 -58.375 512.625 C-59.56222656 512.48964844 -59.56222656 512.48964844 -60.7734375 512.3515625 C-63 512 -63 512 -66 511 C-71.33295432 510.656509 -71.33295432 510.656509 -76 513 C-79.1875 513.125 -79.1875 513.125 -82 513 C-82.99 515.475 -82.99 515.475 -84 518 C-84.33 517.34 -84.66 516.68 -85 516 C-85.78375 515.87625 -86.5675 515.7525 -87.375 515.625 C-90 515 -90 515 -91.8125 512.9375 C-92.204375 512.298125 -92.59625 511.65875 -93 511 C-93.7425 511.165 -94.485 511.33 -95.25 511.5 C-99.43520139 512.26094571 -101.39587713 512.40274858 -105 510 C-105.6875 506.375 -105.6875 506.375 -106 503 C-106.433125 503.9075 -106.86625 504.815 -107.3125 505.75 C-108.70517271 508.43218449 -110.11112757 510.66139605 -112 513 C-113.32 512.67 -114.64 512.34 -116 512 C-116.33 510.02 -116.66 508.04 -117 506 C-124.34732308 506.13675221 -129.76913328 506.86577482 -136.0390625 510.79296875 C-138.5821997 512.35836595 -141.12753772 513.2166012 -144 514 C-144.804375 514.268125 -145.60875 514.53625 -146.4375 514.8125 C-150.23005765 515.09000422 -152.70138906 513.77617512 -156 512 C-156.33 511.01 -156.66 510.02 -157 509 C-157.825 508.67 -158.65 508.34 -159.5 508 C-160.325 507.67 -161.15 507.34 -162 507 C-162.33 506.01 -162.66 505.02 -163 504 C-163.5775 504.350625 -164.155 504.70125 -164.75 505.0625 C-167 506 -167 506 -169.0625 505.4375 C-169.701875 505.293125 -170.34125 505.14875 -171 505 C-171.44472656 505.49886719 -171.88945313 505.99773437 -172.34765625 506.51171875 C-174 508 -174 508 -176.0859375 507.8984375 C-176.84132813 507.72570312 -177.59671875 507.55296875 -178.375 507.375 C-180.74319267 506.9380472 -180.74319267 506.9380472 -183 507 C-185.83411155 509.333492 -185.83411155 509.333492 -188 512 C-189.32 512 -190.64 512 -192 512 C-190.60240095 515.54518884 -190.60240095 515.54518884 -189 519 C-190.093125 519.37125 -191.18625 519.7425 -192.3125 520.125 C-195.54588489 521.4798799 -195.98576455 521.97658038 -197.9375 525.1875 C-198.288125 526.115625 -198.63875 527.04375 -199 528 C-199.66 528 -200.32 528 -201 528 C-201.37125 528.8971875 -201.37125 528.8971875 -201.75 529.8125 C-203.20864875 532.36513531 -204.43626682 533.56732558 -207 535 C-209.25 534.6875 -209.25 534.6875 -211 534 C-211 533.34 -211 532.68 -211 532 C-213.0087944 533.25848578 -215.00629298 534.53051046 -217 535.8125 C-218.11375 536.52019531 -219.2275 537.22789062 -220.375 537.95703125 C-221.674375 538.96830078 -221.674375 538.96830078 -223 540 C-223 540.99 -223 541.98 -223 543 C-229.34241995 544.15316726 -235.56688704 544.09507063 -242 544 C-242.99 539.545 -242.99 539.545 -244 535 C-247.89020092 535.88413657 -249.72476659 536.69653752 -252.4375 539.6875 C-254.31423081 543.66616932 -254.01139661 545.78584745 -253 550 C-256.3 550.66 -259.6 551.32 -263 552 C-263.33 553.98 -263.66 555.96 -264 558 C-271.48126801 558.12680115 -271.48126801 558.12680115 -274.8125 557.3125 C-275.8953125 557.1578125 -275.8953125 557.1578125 -277 557 C-278.62485459 558.2912354 -278.62485459 558.2912354 -280 560 C-283.07539155 561.94774798 -285.38206485 562.60298919 -289 562 C-292.71595046 559.49742112 -294.94304801 557.39777271 -297 553.4375 C-299.23527584 549.59561965 -301.27234931 548.30003979 -305 546 C-307.22431802 543.77568198 -307.94013756 542.75825762 -308.1875 539.625 C-306.58137011 536.07460762 -304.15006224 534.84861926 -300.9921875 532.6796875 C-298.2868107 530.39868353 -297.29893585 527.94895189 -295.9296875 524.75 C-294.56730049 522.1855068 -292.50476309 521.34871859 -290 520 C-287.32195512 516.46115497 -286.50919188 513.37905014 -286 509 C-285.28972656 508.93941406 -284.57945312 508.87882812 -283.84765625 508.81640625 C-282.46900391 508.69072266 -282.46900391 508.69072266 -281.0625 508.5625 C-280.14597656 508.48128906 -279.22945313 508.40007812 -278.28515625 508.31640625 C-276.03840268 508.23955024 -276.03840268 508.23955024 -275 507 C-274.83333333 504.5 -274.83333333 504.5 -275 502 C-275.33 501.67 -275.66 501.34 -276 501 C-275.98004727 499.26279528 -275.89119864 497.52629233 -275.7734375 495.79296875 C-275.7115625 494.73142578 -275.6496875 493.66988281 -275.5859375 492.57617188 C-275.44600799 490.32823027 -275.29765321 488.08079631 -275.140625 485.83398438 C-275.08132813 484.76857422 -275.02203125 483.70316406 -274.9609375 482.60546875 C-274.89696777 481.62731201 -274.83299805 480.64915527 -274.76708984 479.64135742 C-275.0429138 476.51332871 -275.97924801 475.33811573 -278 473 C-279.59565712 468.06796889 -280.37181626 460.89339412 -278.10546875 456.11328125 C-277.74066406 455.56027344 -277.37585938 455.00726563 -277 454.4375 C-274.47368141 450.09538993 -274.35609386 446.90861782 -275 442 C-275.63028587 440.31923769 -276.29788106 438.65204456 -277 437 C-277.12810303 435.58529694 -277.22937253 434.16805676 -277.3125 432.75 C-277.7094367 428.08015645 -279.45624811 424.99344205 -282.0390625 421.140625 C-283.28790785 418.3586443 -282.86610069 416.87431219 -282 414 C-281.67 413.34 -281.34 412.68 -281 412 C-279.46103142 411.89976067 -277.91722259 411.87034072 -276.375 411.875 C-271.82116164 411.54179231 -269.92670981 410.51158825 -266.9375 407.0625 C-263.69429564 402.85778094 -262.57560599 400.41102364 -263 395 C-263.99335201 393.32936253 -264.99431758 391.66324401 -266 390 C-266.61365704 387.75409872 -267.07548048 385.49918056 -267.54296875 383.21875 C-268.13650303 380.33731861 -268.81529427 377.69849638 -270 375 C-272.01362268 373.82622085 -272.01362268 373.82622085 -274 373 C-273.77131174 366.13935215 -273.26789341 360.84507537 -269.859375 354.85546875 C-267.51681782 349.79767484 -269.12522956 343.22368186 -269.87890625 337.8828125 C-270 336 -270 336 -269 334 C-268.49929679 330.62642666 -268.49929679 330.62642666 -269 327 C-271.20802268 324.29182272 -271.20802268 324.29182272 -274 322 C-279.48348002 316.0180218 -281.0479824 308.00606618 -281.3125 300 C-280.87597225 295.80933364 -279.40293972 292.78909029 -277.5 289.0625 C-275.91735368 285.47201879 -275.53102747 281.94340009 -275.0625 278.0625 C-274.42182916 272.98020357 -273.51101151 269.15519502 -270.94140625 264.74609375 C-269.93804089 262.88507999 -269.43621042 261.17432266 -268.9375 259.125 C-268 256 -268 256 -265 254 C-263.989375 253.690625 -262.97875 253.38125 -261.9375 253.0625 C-258.72369498 252.2287898 -258.72369498 252.2287898 -257 249 C-255.59639368 243.4808813 -254.54987045 237.70164098 -255 232 C-255.33 231.67 -255.66 231.34 -256 231 C-256.41380514 224.99982541 -255.56467026 221.52390518 -253 216 C-252.65975713 214.69441688 -252.34782711 213.38117393 -252.0625 212.0625 C-251.40227187 209.15527699 -250.47281142 206.89943076 -249 204.3125 C-244.30221061 195.32008971 -243.87175007 182.911615 -245 173 C-247.13860015 167.89180078 -249.55027814 164.42747111 -254.8125 162.25 C-255.534375 162.1675 -256.25625 162.085 -257 162 C-257.93392578 161.88785156 -257.93392578 161.88785156 -258.88671875 161.7734375 C-261.03330987 161.62266031 -262.8817376 161.61208775 -265 162 C-268.14395232 164.89574556 -269.62474285 167.9888333 -271 172 C-273.3125 171.9375 -273.3125 171.9375 -276 171 C-277.01529541 168.67328135 -278.01488198 166.3396553 -279 164 C-281.52372901 162.63921965 -281.52372901 162.63921965 -284 162 C-284.495 161.01 -284.495 161.01 -285 160 C-285.99 159.67 -286.98 159.34 -288 159 C-288.0825 158.401875 -288.165 157.80375 -288.25 157.1875 C-288.87329921 154.5672311 -288.87329921 154.5672311 -292.4375 153.125 C-293.05496094 152.85945312 -293.67242187 152.59390625 -294.30859375 152.3203125 C-296.93919157 150.26686662 -297.30045367 148.21103235 -298 145 C-297.6875 141.7109375 -297.6875 141.7109375 -297 138.375 C-295.8705728 133.06551523 -295.8705728 133.06551523 -298 128 C-295.03 127.01 -292.06 126.02 -289 125 C-289.185625 124.113125 -289.37125 123.22625 -289.5625 122.3125 C-289.98042484 119.14821189 -289.80777742 117.05160358 -289 114 C-286.12688121 113.18428676 -283.5411195 112.86840196 -280.55859375 112.82421875 C-279.31239258 112.78844727 -279.31239258 112.78844727 -278.04101562 112.75195312 C-276.30168454 112.70889392 -274.56202046 112.67769254 -272.82226562 112.65820312 C-267.8507054 112.64455081 -267.8507054 112.64455081 -263.91015625 109.95703125 C-263.60980469 109.31121094 -263.30945313 108.66539062 -263 108 C-261.80375 108.350625 -260.6075 108.70125 -259.375 109.0625 C-254.60878514 110.25615522 -251.02485911 109.51798721 -246.3125 108.3125 C-244 108 -244 108 -241 110 C-239.00249552 110 -237.00444719 109.99644125 -235.0078125 109.9375 C-232.37238392 110.01953669 -230.34126839 110.8293658 -228 112 C-227.9175 111.38125 -227.835 110.7625 -227.75 110.125 C-227 108 -227 108 -225.484375 106.90625 C-221.8890638 105.59475283 -218.28550252 105.52924798 -214.5 105.375 C-213.74074219 105.33632812 -212.98148437 105.29765625 -212.19921875 105.2578125 C-208.79463766 105.09086281 -205.40918427 105 -202 105 C-202 104.34 -202 103.68 -202 103 C-201.01 103 -200.02 103 -199 103 C-198.67 103.66 -198.34 104.32 -198 105 C-196.35 105 -194.7 105 -193 105 C-193.19464844 104.42894531 -193.38929688 103.85789062 -193.58984375 103.26953125 C-194.08411888 100.53454217 -193.58532936 99.24684634 -192.5625 96.6875 C-191.05394748 92.54583762 -190.72040579 89.38030924 -191 85 C-190.34 85 -189.68 85 -189 85 C-188.79375 84.05125 -188.5875 83.1025 -188.375 82.125 C-187.92125 81.09375 -187.4675 80.0625 -187 79 C-185.0187415 78.27954236 -183.01495907 77.61998741 -181 77 C-178.78515378 75.14594321 -176.9549877 73.141177 -175 71 C-169.25 72.625 -169.25 72.625 -167 76 C-167 76.99 -167 77.98 -167 79 C-164.09926819 79.67801034 -164.09926819 79.67801034 -161 80 C-160.34 79.34 -159.68 78.68 -159 78 C-155.15822926 78.30329769 -152.90572328 79.52475424 -150 82 C-150.33 84.31 -150.66 86.62 -151 89 C-150.01 89.33 -149.02 89.66 -148 90 C-148 89.34 -148 88.68 -148 88 C-139.13046358 86.49668874 -139.13046358 86.49668874 -135 89 C-134 92 -134 92 -134.9375 94.1875 C-135.288125 94.785625 -135.63875 95.38375 -136 96 C-133.03 95.505 -133.03 95.505 -130 95 C-129.67 94.01 -129.34 93.02 -129 92 C-125.00544228 88.00544228 -121.3758728 87.09339786 -116 86 C-116 86.66 -116 87.32 -116 88 C-115.01 87.34 -114.02 86.68 -113 86 C-112.01 86 -111.02 86 -110 86 C-110.33 84.68 -110.66 83.36 -111 82 C-110.443125 81.773125 -109.88625 81.54625 -109.3125 81.3125 C-105.36956194 79.07461624 -102.46565958 76.61189855 -101.1875 72.1875 C-101.125625 71.465625 -101.06375 70.74375 -101 70 C-98.03 70 -95.06 70 -92 70 C-91.67 69.34 -91.34 68.68 -91 68 C-90.01 68 -89.02 68 -88 68 C-88 67.34 -88 66.68 -88 66 C-87.34 66 -86.68 66 -86 66 C-86 65.34 -86 64.68 -86 64 C-85.195625 64.495 -85.195625 64.495 -84.375 65 C-80.40328905 66.67229935 -77.02922547 66.34307516 -73 65 C-73 63.35 -73 61.7 -73 60 C-71.68 60.66 -70.36 61.32 -69 62 C-69 61.34 -69 60.68 -69 60 C-69.66 59.67 -70.32 59.34 -71 59 C-70.54625 58.278125 -70.0925 57.55625 -69.625 56.8125 C-67.94102481 54.08649352 -67.94102481 54.08649352 -67 51.25 C-66.67 50.5075 -66.34 49.765 -66 49 C-65.01 48.67 -64.02 48.34 -63 48 C-62.85304688 46.46279297 -62.85304688 46.46279297 -62.703125 44.89453125 C-62.55297049 43.53375598 -62.40187913 42.17308386 -62.25 40.8125 C-62.188125 40.13896484 -62.12625 39.46542969 -62.0625 38.77148438 C-61.50873465 34.04140532 -60.33785921 31.38112776 -57 28 C-56.01 27.34 -55.02 26.68 -54 26 C-52.79517061 24.2820354 -52.79517061 24.2820354 -51.8125 22.375 C-51.214375 21.26125 -50.61625 20.1475 -50 19 C-49.34 19 -48.68 19 -48 19 C-46.515 13.06 -46.515 13.06 -45 7 C-43.494375 7.0825 -41.98875 7.165 -40.4375 7.25 C-36.77755162 7.26546457 -34.41690244 7.02578648 -31.3125 5.0625 C-27.72330057 2.82771545 -25.15444063 2.41544406 -21 2 C-20.67 1.67 -20.34 1.34 -20 1 C-17.58090665 0.56928338 -15.18345058 0.20037663 -12.75 -0.125 C-12.08097656 -0.22425781 -11.41195313 -0.32351562 -10.72265625 -0.42578125 C-6.91838721 -0.94148766 -3.68119664 -1.18203562 0 0 Z " fill="#FDFDFE" transform="translate(714,37)"/>
<path name="ketto" d="M0 0 C0.33 0.99 0.66 1.98 1 3 C3.42879062 4.21439531 5.10604308 4.06819281 7.8125 4.125 C12.50034534 4.53586001 12.50034534 4.53586001 14.59375 6.48046875 C15.40867769 7.70547223 16.18520875 8.95686618 16.921875 10.23046875 C18.46456834 12.76249803 20.66895029 14.20688484 23 16 C25.62438846 18.86296923 27.18914446 21.44709234 28.625 25 C30.81088406 29.68653543 34.09830204 30.6905309 38.6796875 32.640625 C41.94456443 34.55338118 42.71870961 36.7695446 43.6953125 40.328125 C44.12585938 40.87984375 44.55640625 41.4315625 45 42 C46.95972225 42.19370546 48.91998167 42.3838203 50.8828125 42.54296875 C54.70241314 43.36749509 56.84407994 46.1098704 59.4375 48.875 C64.33672399 53.77493994 68.04247942 56.58491107 75 58 C75 58.33 75 58.66 75 59 C71.7 59.66 68.4 60.32 65 61 C66.28132812 60.84273437 67.56265625 60.68546875 68.8828125 60.5234375 C73.04053939 60.0600225 77.16601529 59.8443661 81.34545898 59.70849609 C88.82932197 59.46146577 95.68840387 59.08060619 102.80859375 56.5234375 C105.48628022 55.88384751 107.3417025 56.40532243 110 57 C110.66 56.67 111.32 56.34 112 56 C113.91372461 55.87681114 115.83235166 55.82442567 117.75 55.8125 C118.77609375 55.79832031 119.8021875 55.78414062 120.859375 55.76953125 C124.21385611 56.01569342 126.82013452 56.93734087 130 58 C132.41045198 58.25525529 134.82909478 58.44145474 137.25 58.5625 C143.80235294 58.90117647 143.80235294 58.90117647 146 60 C151.85108292 60.56553218 156.67232377 60.07803008 162.07421875 57.8046875 C167.93497144 55.35577258 172.66066253 54.73508795 178.921875 55.90625 C181.02768732 56.18612437 181.02768732 56.18612437 182.71875 55.0234375 C186.87746997 53.15771039 191.61557193 54.00760646 196.09375 54.25390625 C201.79386648 54.41649346 206.34088888 53.45949416 211 50 C212.03161608 48.01612292 213.03523618 46.01723344 214 44 C219.15890191 41.10598186 224.39242758 42.0790816 230 43 C231.134375 43.185625 232.26875 43.37125 233.4375 43.5625 C236.89870838 45.50415348 237.41312637 47.63320125 238.5546875 51.3203125 C238.70164062 51.87460938 238.84859375 52.42890625 239 53 C240.65 53 242.3 53 244 53 C244.33773438 52.36191406 244.67546875 51.72382813 245.0234375 51.06640625 C245.46945312 50.24011719 245.91546875 49.41382813 246.375 48.5625 C247.03628906 47.32693359 247.03628906 47.32693359 247.7109375 46.06640625 C249 44 249 44 251 43 C255.64295428 42.61308714 258.0561853 42.52809265 262.25 44.625 C266.31843936 48.13865217 268.741646 50.48427789 269.3125 56.04296875 C269.50609322 66.94468696 269.05382886 77.48524077 263.16796875 86.875 C261.54917361 89.82023264 260.99770125 92.72874739 260.40234375 96.01171875 C260 98 260 98 258.875 100.5625 C257.58933245 104.14400247 257.81022088 107.20441761 258 111 C258.33 111.33 258.66 111.66 259 112 C258.91566276 115.69137631 258.43961806 119.33651615 258 123 C257.91878906 124.17175781 257.91878906 124.17175781 257.8359375 125.3671875 C257.5625 127.4375 257.5625 127.4375 256 131 C252.80333135 132.85126939 249.51137492 133.90385651 246 135 C244.49888649 136.50111351 244.51981249 138.11992932 244.125 140.1875 C243.51332788 143.10435436 242.94158822 145.10708826 241.5 147.75 C239.53418536 152.00926505 239.10628426 156.14972591 238.52734375 160.78125 C237.7661384 165.4274219 236.61618297 169.07572555 234 173 C233.24694083 182.23604919 233.11072814 192.80716608 238 201 C239.71724249 202.48897256 239.71724249 202.48897256 241.625 203.8125 C244.69377652 206.30826846 244.95102921 206.62659774 245.5 210.8125 C245 214 245 214 244 215 C243.62947661 220.17735677 243.62947661 220.17735677 245 225 C245.495019 230.74222036 244.84805864 234.15247174 241.97265625 239.140625 C239.74960355 243.3903161 239.16258527 248.284991 240 253 C241.42845162 255.33455899 243.08695192 256.99585439 245 259 C247.02194951 262.47029633 247.68866335 265.87660178 248.4375 269.78125 C248.92152799 272.03697089 248.92152799 272.03697089 250.0625 274.07421875 C251.65091438 277.33708662 250.93100164 279.56693144 250 283 C248.42377889 285.9372386 246.74400039 288.08468773 244 290 C241.35136932 290.54699981 238.97107271 290.69066658 236.26953125 290.63671875 C233.84336412 290.79420786 233.84336412 290.79420786 232.1953125 292.84375 C230.76354837 294.99927426 230.76354837 294.99927426 231.0625 297.8125 C231.98820274 300.95988932 233.37561952 303.2995662 235.0859375 306.07421875 C236.45779778 308.96450558 236.56669322 311.78168486 236.78515625 314.94140625 C236.91586542 317.14118664 236.91586542 317.14118664 238.0625 319.5625 C239.40308465 323.0480201 239.60984502 326.34802113 239 330 C238.34 331.010625 237.68 332.02125 237 333.0625 C233.542189 338.38505908 234.08857329 345.9550964 235 352 C235.67675781 352.71929687 236.35351562 353.43859375 237.05078125 354.1796875 C240.29638391 358.87572982 239.10663672 363.98504316 238.6875 369.5 C238.54034954 371.7392462 238.39823457 373.97883031 238.26171875 376.21875 C238.18912842 377.20810547 238.11653809 378.19746094 238.04174805 379.21679688 C237.89627181 382.39483063 237.89627181 382.39483063 239 387 C235.37 387.33 231.74 387.66 228 388 C227.773125 389.4025 227.54625 390.805 227.3125 392.25 C226.54553304 395.74517798 226.20839583 396.79694765 223.5625 399.375 C222.716875 399.91125 221.87125 400.4475 221 401 C218.61990319 403.08706982 217.49155536 404.8964948 216.3125 407.8125 C214.02294163 412.66995521 210.4366589 415.15709235 206 418 C206.2683014 421.8456534 206.70596285 423.65695666 209.25 426.625 C210.97619648 428.11580605 212.74316217 429.56190311 214.5625 430.9375 C217.39066557 433.33056317 219.0426602 435.86825632 221 439 C221.598125 439.70125 222.19625 440.4025 222.8125 441.125 C224 443 224 443 223.6875 445.25 C223.3471875 446.11625 223.3471875 446.11625 223 447 C218.25 446.25 218.25 446.25 216 444 C211.46201573 441.73100786 208.08145082 440.62818653 203 441 C202.9175 442.11375 202.835 443.2275 202.75 444.375 C202.5025 445.57125 202.255 446.7675 202 448 C200.66666667 448.66666667 199.33333333 449.33333333 198 450 C197.08687675 451.97338484 196.43489991 453.94614005 195.80859375 456.02734375 C194.88816604 458.27283163 193.78569855 459.38414938 192 461 C191.4225 461.680625 190.845 462.36125 190.25 463.0625 C186.65134994 466.16133755 182.68563717 467 178 467 C177.67 468.32 177.34 469.64 177 471 C175.68 471 174.36 471 173 471 C172.67 472.98 172.34 474.96 172 477 C167.96825194 476.72510809 166.43105369 476.46508424 163.625 473.4375 C163.08875 472.633125 162.5525 471.82875 162 471 C161.401875 471.33 160.80375 471.66 160.1875 472 C158 473 158 473 155 473 C153.783125 473.103125 152.56625 473.20625 151.3125 473.3125 C147.71329207 473.35197943 145.91124979 472.51614383 143 470.4375 C139.95794835 468.28946353 138.38345098 467.70439106 134.6875 468.3125 C132.8621875 468.6528125 132.8621875 468.6528125 131 469 C130.01 468.34 129.02 467.68 128 467 C124.87501834 466.6626154 124.87501834 466.6626154 122.8125 469 C122.214375 469.66 121.61625 470.32 121 471 C119.56068883 470.54738642 118.12361001 470.08767021 116.6875 469.625 C115.48673828 469.24214844 115.48673828 469.24214844 114.26171875 468.8515625 C112 468 112 468 109 466 C106.26937763 465.80516021 103.66475836 465.72106357 100.9375 465.75 C100.20466797 465.74226563 99.47183594 465.73453125 98.71679688 465.7265625 C94.39266152 465.5944283 94.39266152 465.5944283 91 468 C88.5625 467.875 88.5625 467.875 86 467 C84.99357052 465.67151309 83.99307821 464.33849671 83 463 C81.68 463 80.36 463 79 463 C78.67 462.34 78.34 461.68 78 461 C75.69520005 460.19132343 75.69520005 460.19132343 72.9375 459.5625 C71.94621094 459.29824219 70.95492187 459.03398438 69.93359375 458.76171875 C68.1613206 458.3015413 66.3836493 457.86069472 64.59765625 457.45703125 C62.5 456.875 62.5 456.875 59 455 C57.12026538 451.55170304 56 447.94219423 56 444 C55.40574219 443.73445313 54.81148437 443.46890625 54.19921875 443.1953125 C51.9551885 441.97564419 50.58765775 440.6896057 48.8125 438.875 C46.00353484 436.3954444 44.37669412 435.63214573 40.625 435.75 C39.87605469 435.80671875 39.12710938 435.8634375 38.35546875 435.921875 C34.43263832 436.05198546 30.77000209 434.99820386 27 434 C26.67 434.99 26.34 435.98 26 437 C24.35 436.67 22.7 436.34 21 436 C19.875 432.25 19.875 432.25 21 430 C19.68 429.67 18.36 429.34 17 429 C17.66 427.68 18.32 426.36 19 425 C18.34 425 17.68 425 17 425 C17 425.66 17 426.32 17 427 C15.35 426.67 13.7 426.34 12 426 C12 425.34 12 424.68 12 424 C11.34 424 10.68 424 10 424 C10 423.34 10 422.68 10 422 C8.35 422 6.7 422 5 422 C4.67 421.01 4.34 420.02 4 419 C5.485 417.515 5.485 417.515 7 416 C5.68 416 4.36 416 3 416 C3 414.35 3 412.7 3 411 C1.68 410.34 0.36 409.68 -1 409 C-1 408.34 -1 407.68 -1 407 C-1.99 406.34 -2.98 405.68 -4 405 C-4 403.33333333 -4 401.66666667 -4 400 C-5.65 400 -7.3 400 -9 400 C-9.07347656 399.06027344 -9.07347656 399.06027344 -9.1484375 398.1015625 C-9.26058594 396.87566406 -9.26058594 396.87566406 -9.375 395.625 C-9.44460937 394.81289063 -9.51421875 394.00078125 -9.5859375 393.1640625 C-9.82892588 390.79665809 -9.82892588 390.79665809 -12 389 C-14.78918149 387.89459074 -14.78918149 387.89459074 -17 388 C-17 387.34 -17 386.68 -17 386 C-18.134375 385.71125 -19.26875 385.4225 -20.4375 385.125 C-21.613125 384.75375 -22.78875 384.3825 -24 384 C-24.33 383.34 -24.66 382.68 -25 382 C-26.97011235 380.68269352 -26.97011235 380.68269352 -29.3125 379.4375 C-30.09238281 379.00308594 -30.87226563 378.56867188 -31.67578125 378.12109375 C-33.80048165 377.09623826 -35.69739473 376.46895164 -38 376 C-38 375.01 -38 374.02 -38 373 C-39.65 372.67 -41.3 372.34 -43 372 C-43.495 370.515 -43.495 370.515 -44 369 C-45.3153341 368.29848848 -46.65117592 367.63474075 -48 367 C-52.23446172 363.81878003 -52.22755834 358.94004876 -53.15625 354.03125 C-53.99603509 351.01424432 -54.5144937 349.82143973 -57 348 C-57.680625 347.835 -58.36125 347.67 -59.0625 347.5 C-61 347 -61 347 -63 344 C-63.969375 344 -64.93875 344 -65.9375 344 C-69 344 -69 344 -70.625 342.5 C-71.305625 341.7575 -71.305625 341.7575 -72 341 C-73.32 341 -74.64 341 -76 341 C-76.67119549 339.5437455 -77.33681807 338.08492133 -78 336.625 C-78.37125 335.81289063 -78.7425 335.00078125 -79.125 334.1640625 C-80 332 -80 332 -80 330 C-80.99 330 -81.98 330 -83 330 C-83 329.01 -83 328.02 -83 327 C-84.010625 326.896875 -85.02125 326.79375 -86.0625 326.6875 C-91.17025308 325.7956701 -95.21649009 324.28046866 -99.4375 321.25 C-101.60851538 318.12373785 -101.28560002 315.71280026 -101 312 C-101.66 312 -102.32 312 -103 312 C-103.4021875 310.7934375 -103.4021875 310.7934375 -103.8125 309.5625 C-104.204375 308.716875 -104.59625 307.87125 -105 307 C-105.99 306.67 -106.98 306.34 -108 306 C-108.68132451 304.33927151 -109.34742127 302.672233 -110 301 C-110.99 300.34 -111.98 299.68 -113 299 C-113 298.01 -113 297.02 -113 296 C-114.32 296 -115.64 296 -117 296 C-117 295.01 -117 294.02 -117 293 C-118.65 292.34 -120.3 291.68 -122 291 C-122 289.68 -122 288.36 -122 287 C-120.68 286.67 -119.36 286.34 -118 286 C-117.67 284.02 -117.34 282.04 -117 280 C-119.31 279.34 -121.62 278.68 -124 278 C-124 276.68 -124 275.36 -124 274 C-124.99 274 -125.98 274 -127 274 C-129.36394734 270.8177632 -130.5851885 267.94070924 -131 264 C-130.67 263.01 -130.34 262.02 -130 261 C-130.99 261 -131.98 261 -133 261 C-133 260.01 -133 259.02 -133 258 C-132.01 258 -131.02 258 -130 258 C-129.27973496 254.62785004 -128.76215959 251.4513286 -129 248 C-130.74210399 245.65754017 -132.50875579 244.626935 -135 243 C-135 242.34 -135 241.68 -135 241 C-137.25111973 241.28289472 -139.50087686 241.57664693 -141.75 241.875 C-143.00296875 242.03742188 -144.2559375 242.19984375 -145.546875 242.3671875 C-148.53539824 242.91485805 -150.3870831 243.58222895 -153 245 C-156.125 245.25 -156.125 245.25 -159 245 C-159.66 244.34 -160.32 243.68 -161 243 C-159.88200014 241.66079162 -158.75538103 240.32877444 -157.625 239 C-156.68527344 237.88625 -156.68527344 237.88625 -155.7265625 236.75 C-155.15679687 236.1725 -154.58703125 235.595 -154 235 C-153.34 235 -152.68 235 -152 235 C-151.34 233.02 -150.68 231.04 -150 229 C-145.25 228 -145.25 228 -143 228 C-142.67 226.35 -142.34 224.7 -142 223 C-141.01 223 -140.02 223 -139 223 C-138.34 220.03 -137.68 217.06 -137 214 C-132.545 214.99 -132.545 214.99 -128 216 C-128 215.34 -128 214.68 -128 214 C-123.02906176 214.41153737 -118.55491614 214.79600832 -114 217 C-113.34 216.34 -112.68 215.68 -112 215 C-110.65938457 215.30271961 -109.32594105 215.63837971 -108 216 C-107.01 215.67 -106.02 215.34 -105 215 C-105.66 214.38125 -106.32 213.7625 -107 213.125 C-109 211 -109 211 -109 209 C-110.98 209 -112.96 209 -115 209 C-111.63576723 206.03947516 -108.30840713 205.07710178 -104 204 C-104.33 203.01 -104.66 202.02 -105 201 C-105.825 200.690625 -106.65 200.38125 -107.5 200.0625 C-108.325 199.711875 -109.15 199.36125 -110 199 C-110.8125 196.875 -110.8125 196.875 -111 195 C-110.34 195 -109.68 195 -109 195 C-109 194.34 -109 193.68 -109 193 C-107.36739286 191.62517293 -105.69774938 190.29352333 -104 189 C-103.34 188.34 -102.68 187.68 -102 187 C-102 186.34 -102 185.68 -102 185 C-105.63 184.67 -109.26 184.34 -113 184 C-112.67 182.35 -112.34 180.7 -112 179 C-112.33 178.34 -112.66 177.68 -113 177 C-115.02463255 176.34786708 -115.02463255 176.34786708 -117 176 C-117.33 174.68 -117.66 173.36 -118 172 C-117.34 171.67 -116.68 171.34 -116 171 C-115.31270746 168.88153715 -115.31270746 168.88153715 -114.875 166.4375 C-114.70742187 165.61121094 -114.53984375 164.78492188 -114.3671875 163.93359375 C-114.18542969 162.97646484 -114.18542969 162.97646484 -114 162 C-112.68 161.67 -111.36 161.34 -110 161 C-109.67 159.68 -109.34 158.36 -109 157 C-108.34 157 -107.68 157 -107 157 C-107.76359871 155.0804396 -108.53618478 153.16445288 -109.3125 151.25 C-109.74175781 150.18265625 -110.17101562 149.1153125 -110.61328125 148.015625 C-111.84608612 145.3347085 -113.12807487 143.2616808 -115 141 C-114.34 140.67 -113.68 140.34 -113 140 C-112.00283468 136.01133873 -111.9497283 132.9676931 -113 129 C-111.68 129 -110.36 129 -109 129 C-108.34 129.99 -107.68 130.98 -107 132 C-106.34 132 -105.68 132 -105 132 C-104.67 131.01 -104.34 130.02 -104 129 C-102.96875 129.268125 -101.9375 129.53625 -100.875 129.8125 C-96.92676022 130.39563657 -96.92676022 130.39563657 -94 127.9375 C-92.99828627 126.9600866 -91.99840104 125.98079699 -91 125 C-89.72956124 124.02032145 -88.45872312 123.04116057 -87.1875 122.0625 C-84.67326994 119.90348125 -84.04893096 119.15290924 -83 115.875 C-83 113.33887768 -83.17424386 111.38551773 -84 109 C-83.21625 108.7525 -82.4325 108.505 -81.625 108.25 C-78.61980696 106.81895569 -78.11001632 106.05254489 -77 103 C-76.505 101.515 -76.505 101.515 -76 100 C-76.66 100 -77.32 100 -78 100 C-78.103125 99.360625 -78.20625 98.72125 -78.3125 98.0625 C-78.539375 97.381875 -78.76625 96.70125 -79 96 C-80.485 95.505 -80.485 95.505 -82 95 C-82.125 89.25 -82.125 89.25 -81 87 C-81.66 87 -82.32 87 -83 87 C-83.43699219 86.32839844 -83.87398438 85.65679687 -84.32421875 84.96484375 C-84.87722656 84.31644531 -85.43023437 83.66804688 -86 83 C-88.33401585 82.9234995 -88.33401585 82.9234995 -90.8125 83.5625 C-95.49737116 84.2659136 -95.49737116 84.2659136 -97.8828125 83.00390625 C-99.31500171 81.73364798 -100.66275876 80.36985688 -102 79 C-102.99 78.67 -103.98 78.34 -105 78 C-105.33 78.66 -105.66 79.32 -106 80 C-109.63 78.68 -113.26 77.36 -117 76 C-116.34 75.67 -115.68 75.34 -115 75 C-114.566875 74.01 -114.566875 74.01 -114.125 73 C-113.75375 72.34 -113.3825 71.68 -113 71 C-111.66666667 70.66666667 -110.33333333 70.33333333 -109 70 C-106.97945196 68.35830472 -104.97956942 66.69088222 -103 65 C-100.625 63.6875 -100.625 63.6875 -99 63 C-99.2784375 62.1028125 -99.2784375 62.1028125 -99.5625 61.1875 C-100 59 -100 59 -99 56 C-97.56359829 55.80426392 -96.12580496 55.61872184 -94.6875 55.4375 C-93.48673828 55.28087891 -93.48673828 55.28087891 -92.26171875 55.12109375 C-90 55 -90 55 -87 56 C-87 56.66 -87 57.32 -87 58 C-84.69 58.33 -82.38 58.66 -80 59 C-79.01 62.96 -79.01 62.96 -78 67 C-76.68 67 -75.36 67 -74 67 C-73.773125 67.804375 -73.54625 68.60875 -73.3125 69.4375 C-72.879375 70.283125 -72.44625 71.12875 -72 72 C-69.65466049 72.76956136 -69.65466049 72.76956136 -67 73 C-65.3207762 73.63437344 -63.64991582 74.29289322 -62 75 C-61.814375 74.0409375 -61.814375 74.0409375 -61.625 73.0625 C-61.41875 72.381875 -61.2125 71.70125 -61 71 C-60.34 70.67 -59.68 70.34 -59 70 C-57.9590934 68.35857037 -56.95495674 66.69287785 -56 65 C-55.505 65.825 -55.01 66.65 -54.5 67.5 C-52.18005186 70.35343514 -52.18005186 70.35343514 -48.5625 70.3125 C-43.0669038 70.13748101 -37.82208999 68.79210846 -32.5 67.5 C-30.98019531 67.14228516 -30.98019531 67.14228516 -29.4296875 66.77734375 C-26.95113574 66.19277966 -24.47480666 65.60018531 -22 65 C-22.48210937 64.26910156 -22.96421875 63.53820312 -23.4609375 62.78515625 C-24.9663201 60.06094865 -25.42346533 58.4870378 -25.625 55.4375 C-25.79247227 53.13675002 -25.9768634 51.08524829 -26.58203125 48.85546875 C-27.15247718 46.3231153 -26.2483376 45.2029487 -25 43 C-25 42.34 -25 41.68 -25 41 C-25.66 41 -26.32 41 -27 41 C-27 39.68 -27 38.36 -27 37 C-27.639375 36.731875 -28.27875 36.46375 -28.9375 36.1875 C-31 35 -31 35 -32 32 C-31.278125 31.87625 -30.55625 31.7525 -29.8125 31.625 C-27.01799416 31.0039987 -24.58740955 30.22183229 -22 29 C-21.67 28.34 -21.34 27.68 -21 27 C-20.34 27 -19.68 27 -19 27 C-19 26.34 -19 25.68 -19 25 C-19.66 24.67 -20.32 24.34 -21 24 C-20.7834375 22.7315625 -20.7834375 22.7315625 -20.5625 21.4375 C-19.41454754 14.75214706 -19.41454754 14.75214706 -19 8 C-17.68 7.34 -16.36 6.68 -15 6 C-15 5.34 -15 4.68 -15 4 C-9.77228537 0.95842058 -6.07328688 -0.50610724 0 0 Z " fill="#FDFDFE" transform="translate(199,157)"/>
<path d="M0 0 C343.2 0 686.4 0 1040 0 C1040 218.46 1040 436.92 1040 662 C696.8 662 353.6 662 0 662 C0 443.54 0 225.08 0 0 Z M2 2 C2 219.14 2 436.28 2 660 C343.88 660 685.76 660 1038 660 C1038 442.86 1038 225.72 1038 2 C696.12 2 354.24 2 2 2 Z " fill="#070707" transform="translate(0,0)"/>
<path d="M0 0 C33.66 0 67.32 0 102 0 C102 19.47 102 38.94 102 59 C68.34 59 34.68 59 0 59 C0 39.53 0 20.06 0 0 Z " fill="#C1D1D9" transform="translate(914,593)"/>
<path d="M0 0 C0.66 0 1.32 0 2 0 C2.495 0.99 2.495 0.99 3 2 C4.72574889 2.68914133 6.48197005 3.30299031 8.25 3.875 C16.51624304 6.83106871 16.51624304 6.83106871 19 10 C19.78580739 14.13910428 19.4449475 17.72448384 18.0625 21.6875 C9.99318941 30.73490885 -1.39255017 34.19404649 -12.9609375 35.99609375 C-16.16534302 36.68576215 -16.16534302 36.68576215 -17.41064453 39.37768555 C-21.81094962 46.63785097 -33.06457659 50.12015328 -40.5 53.625 C-41.46808594 54.0890625 -42.43617188 54.553125 -43.43359375 55.03125 C-51.82595748 59.01903088 -60.20768021 62.65637034 -69.1875 65.09375 C-71.17153453 65.85300426 -71.17153453 65.85300426 -71.90942383 67.91699219 C-73.41181708 70.78657339 -75.53995449 71.90112762 -78.42333984 73.23242188 C-83.76256497 74.82295852 -89.29529936 74.40317375 -94.8125 74.25 C-96.03904297 74.23195313 -97.26558594 74.21390625 -98.52929688 74.1953125 C-100.78897797 74.16052906 -103.04855857 74.11750969 -105.30786133 74.06347656 C-107.20483163 74.01874887 -109.10250247 74 -111 74 C-113.45811625 70.31282562 -113.31118164 68.35654296 -113 64 C-112.34 63.01 -111.68 62.02 -111 61 C-110.175 61.165 -109.35 61.33 -108.5 61.5 C-104.37512963 62.0892672 -101.16537717 62.47028452 -97 62 C-94.57577814 59.11490087 -94.57577814 59.11490087 -93 56 C-92.34 56 -91.68 56 -91 56 C-91 55.34 -91 54.68 -91 54 C-89.3603125 54.5259375 -89.3603125 54.5259375 -87.6875 55.0625 C-84.09079627 56.33039454 -84.09079627 56.33039454 -81 55 C-78.3125 55.4375 -78.3125 55.4375 -76 56 C-75.34 55.01 -74.68 54.02 -74 53 C-71.68152126 52.2833793 -69.34680297 51.61757973 -67 51 C-66.01 50.34 -65.02 49.68 -64 49 C-61.95703125 48.5859375 -61.95703125 48.5859375 -59.8125 48.375 C-58.554375 48.25125 -57.29625 48.1275 -56 48 C-55.773125 47.29875 -55.54625 46.5975 -55.3125 45.875 C-53.70974298 42.36419891 -52.24062487 39.1957505 -49 37 C-46.765625 36.8671875 -46.765625 36.8671875 -44.25 37.0625 C-39.61602826 37.40140241 -37.69007134 36.45912687 -34.125 33.5 C-33.07699219 32.52546875 -33.07699219 32.52546875 -32.0078125 31.53125 C-30 30 -30 30 -26 30 C-26 30.99 -26 31.98 -26 33 C-24.02 33.66 -22.04 34.32 -20 35 C-21.31224548 31.06326356 -22.91910327 28.77280706 -26 26 C-20.375 21 -20.375 21 -17 21 C-16.505 19.515 -16.505 19.515 -16 18 C-14.07421875 17.11328125 -14.07421875 17.11328125 -11.6875 16.3125 C-7.86599114 14.76077267 -6.25006466 13.47363827 -4.4375 9.75 C-3.92904316 8.51162512 -3.43895498 7.26468147 -3 6 C-2.34 6 -1.68 6 -1 6 C-1.020625 5.195625 -1.04125 4.39125 -1.0625 3.5625 C-1 1 -1 1 0 0 Z " fill="#95CBED" transform="translate(312,360)"/>
<path d="M0 0 C9.57 0 19.14 0 29 0 C29 19.47 29 38.94 29 59 C19.43 59 9.86 59 0 59 C0 39.53 0 20.06 0 0 Z " fill="#C2D2DA" transform="translate(879,593)"/>
<path d="M0 0 C2.64 0.33 5.28 0.66 8 1 C8.12375 2.7015625 8.12375 2.7015625 8.25 4.4375 C9.19076293 11.93710308 13.04136668 18.66618669 17 25 C17.66 25.33 18.32 25.66 19 26 C19 25.34 19 24.68 19 24 C23.05089111 23.29888423 26.05194427 22.91088118 30 24 C32.18703385 23.62092718 32.18703385 23.62092718 34 23 C34 23.66 34 24.32 34 25 C34.66 25 35.32 25 36 25 C36.268125 25.78375 36.53625 26.5675 36.8125 27.375 C37.84814432 30.28114923 37.84814432 30.28114923 41 32 C41 32.66 41 33.32 41 34 C41.99 34.33 42.98 34.66 44 35 C44.12375 36.134375 44.2475 37.26875 44.375 38.4375 C44.58125 39.613125 44.7875 40.78875 45 42 C45.99 42.495 45.99 42.495 47 43 C47.4140625 45.50390625 47.4140625 45.50390625 47.625 48.5625 C47.69976563 49.57441406 47.77453125 50.58632812 47.8515625 51.62890625 C47.90054688 52.41136719 47.94953125 53.19382813 48 54 C47.34 54 46.68 54 46 54 C46 55.65 46 57.3 46 59 C41.27556751 61.98892668 37.72882011 63.78782148 32 64 C30.31422289 63.38325228 28.64551962 62.71727778 27 62 C23.79129767 61.83242243 23.79129767 61.83242243 21 62 C20.34 60.35 19.68 58.7 19 57 C16.52733235 57.34444881 16.52733235 57.34444881 14 58 C13.67 58.66 13.34 59.32 13 60 C12.375 58.1875 12.375 58.1875 12 56 C12.66 55.01 13.32 54.02 14 53 C13.195625 52.54625 12.39125 52.0925 11.5625 51.625 C9 50 9 50 8 48 C7.93003986 46.29297265 7.91559846 44.58331997 7.9375 42.875 C7.94652344 41.96492188 7.95554687 41.05484375 7.96484375 40.1171875 C7.97644531 39.41851562 7.98804688 38.71984375 8 38 C7.34 38 6.68 38 6 38 C6 37.34 6 36.68 6 36 C5.01 36 4.02 36 3 36 C2.34760213 32.88298797 1.88984575 30.51405315 2.5625 27.375 C3.08861971 24.51892157 2.51830222 23.41142117 1 21 C0.01 21.33 -0.98 21.66 -2 22 C-3 21 -3 21 -3.1328125 18.34765625 C-3.13023437 17.26355469 -3.12765625 16.17945312 -3.125 15.0625 C-3.12757813 13.98097656 -3.13015625 12.89945313 -3.1328125 11.78515625 C-3 9 -3 9 -2 7 C-1.34 7 -0.68 7 0 7 C0 4.69 0 2.38 0 0 Z " fill="#F3F5F9" transform="translate(916,84)"/>
<path d="M0 0 C28.05 0 56.1 0 85 0 C85 5.61 85 11.22 85 17 C56.95 17 28.9 17 0 17 C0 11.39 0 5.78 0 0 Z " fill="#BCCAD2" transform="translate(764,635)"/>
<path name="harom" d="M0 0 C4.42864971 0.5061314 6.84889946 1.84889946 10 5 C10.83984375 6.78515625 10.83984375 6.78515625 11.5625 8.6875 C12.60473893 12.12679793 12.60473893 12.12679793 15.1875 12.9375 C15.785625 12.958125 16.38375 12.97875 17 13 C17.2475 11.9275 17.495 10.855 17.75 9.75 C19.0384526 5.88464221 19.62208038 4.22231554 23 2 C28.82158913 1.33194879 32.80846085 2.06139293 38 5 C41.67604823 8.47657275 43.86922312 11.74333853 44.16796875 16.8984375 C44.23231395 28.35188232 43.79382867 38.55590627 38.16796875 48.71875 C36.45830247 52.0580313 35.80573805 55.34318886 35 59 C34.62875 59.825 34.2575 60.65 33.875 61.5 C32.60917898 65.1166315 32.80881139 68.17622785 33 72 C33.33 72.33 33.66 72.66 34 73 C33.84616665 79.73316756 33.50085504 88.05128151 29.8125 93.875 C28 95 28 95 24.5 95.625 C20.95763077 96.57842616 20.95763077 96.57842616 19.984375 98.9140625 C19.50685825 100.43297215 19.07672024 101.96787328 18.703125 103.515625 C18 106 18 106 16.484375 108.86328125 C14.84491665 112.32771561 14.40298819 115.13849673 14 118.9375 C13.32985322 124.24282865 12.41915427 128.26248955 10 133 C6.1294269 141.14857494 8.24827035 149.72297193 11 158 C13.27127334 161.02409364 13.27127334 161.02409364 16 163 C18.86756999 165.94507188 19.92947661 167.2383474 20.3125 171.375 C20.10165373 173.82081674 19.80769219 176.26068451 19.4375 178.6875 C19.02276707 181.82762078 19.20169855 183.07289469 20 186 C20.39348338 190.72180061 20.43256348 193.62815047 18.0625 197.75 C15.31009804 202.72208096 14.35504175 208.35661529 15 214 C16.83474661 216.22546914 16.83474661 216.22546914 19 218 C21.53622114 222.19451958 22.6089251 226.18635843 23.47265625 230.94921875 C23.95389234 233.28834777 23.95389234 233.28834777 26 236 C26.51160356 239.83702672 26.19538045 241.64542067 24.3125 245.0625 C23.549375 246.031875 22.78625 247.00125 22 248 C21.29875 248.94875 20.5975 249.8975 19.875 250.875 C15.71206274 253.95195363 12.00917544 253.43769494 7 253 C6.01796011 256.55045192 5.41201852 258.74912049 7.01171875 262.15234375 C7.93542392 263.65832724 8.86261862 265.16217497 9.79296875 266.6640625 C11.40888898 269.79131266 11.61683816 272.54459219 11.8203125 276.015625 C11.91093782 278.14526532 11.91093782 278.14526532 13.0625 280.5 C14.49823758 284.32863355 14.60142425 287.96486285 14 292 C12.99693638 293.7240156 11.99227061 295.44928596 10.8984375 297.1171875 C8.6258577 301.8797243 9.61946543 307.50504276 10.875 312.4375 C11.98283746 315.16214083 11.98283746 315.16214083 14 318 C14.11938477 320.52783203 14.11938477 320.52783203 13.94140625 323.5078125 C13.88533203 324.57644531 13.82925781 325.64507813 13.77148438 326.74609375 C13.70251953 327.86113281 13.63355469 328.97617187 13.5625 330.125 C13.4343261 332.33568253 13.3103884 334.54661621 13.19140625 336.7578125 C13.10161499 338.22951904 13.10161499 338.22951904 13.01000977 339.73095703 C13.00670654 340.47974121 13.00340332 341.22852539 13 342 C13.33 342.33 13.66 342.66 14 343 C14.1875 345.4375 14.1875 345.4375 14 348 C12 350 12 350 9.6171875 350.1953125 C8.25980469 350.16050781 8.25980469 350.16050781 6.875 350.125 C5.96492188 350.10695313 5.05484375 350.08890625 4.1171875 350.0703125 C3.06917969 350.03550781 3.06917969 350.03550781 2 350 C2.103125 350.845625 2.20625 351.69125 2.3125 352.5625 C1.89950605 357.10543349 0.09069368 359.71503415 -3 363 C-3.70125 363.33 -4.4025 363.66 -5.125 364 C-7.77225509 365.41186938 -8.00208523 367.42567633 -9.015625 370.1171875 C-11.08472065 374.07474347 -15.04989899 377.02494949 -19 379 C-18.58071383 383.89167203 -16.55713565 385.76624032 -13 389 C-10.41996594 391.45717529 -8.26233809 393.55927201 -6.4375 396.625 C-4.84430896 399.25722868 -3.7021687 400.53310842 -1 402 C2.16732421 402.25086724 2.16732421 402.25086724 5 402 C5 402.66 5 403.32 5 404 C1.92205363 404.43199247 -0.02583312 404.6835366 -3 404 C-5.77673892 401.67093939 -7.81618097 398.87598771 -10 396 C-11.64694485 394.31384218 -13.31126121 392.64429829 -15 391 C-17.67179526 388.39033952 -19.92570221 386.11144669 -22 383 C-21.9375 380.5625 -21.9375 380.5625 -21 378 C-18.6875 375.9375 -18.6875 375.9375 -16 374 C-13.13217361 371.56669276 -11.64582398 369.37960884 -10.125 366 C-8.61181676 362.727441 -8.10858499 362.06732269 -4.875 360.0625 C-1.6063119 357.71757158 -1.4741551 357.07424918 -0.6875 353.3125 C-0.56761719 352.52488281 -0.44773437 351.73726562 -0.32421875 350.92578125 C0 349 0 349 1 348 C2.85287502 347.92773498 4.70833878 347.9161878 6.5625 347.9375 C7.57441406 347.94652344 8.58632813 347.95554687 9.62890625 347.96484375 C10.80259766 347.98224609 10.80259766 347.98224609 12 348 C11.66806641 347.29496338 11.33613281 346.58992676 10.99414062 345.86352539 C9.89008732 342.68340721 9.87508108 340.52830813 10.09375 337.18359375 C10.15433594 336.08982422 10.21492188 334.99605469 10.27734375 333.86914062 C10.35082031 332.73669922 10.42429687 331.60425781 10.5 330.4375 C10.64553401 328.1868293 10.78136527 325.93550462 10.90625 323.68359375 C10.97134766 322.68900146 11.03644531 321.69440918 11.10351562 320.66967773 C10.99400691 317.84543771 10.55090735 316.34142814 9 314 C8.34 313.67 7.68 313.34 7 313 C6.30956679 298.09814982 6.30956679 298.09814982 9 294.0625 C11.70028794 289.92768409 11.47172569 287.87449882 11 283 C10.35561283 281.32459336 9.68753301 279.65816784 9 278 C8.8721466 276.58527436 8.77077054 275.16804836 8.6875 273.75 C8.36557593 269.9563457 7.35884347 267.55332418 5.375 264.3125 C3.54220983 261.27727235 3 260.28062405 3 256.625 C4.04940332 253.87031629 4.68679955 252.76952141 7 251 C9.48046875 250.70703125 9.48046875 250.70703125 12.1875 250.8125 C13.08855469 250.83957031 13.98960937 250.86664063 14.91796875 250.89453125 C15.60503906 250.92933594 16.29210937 250.96414063 17 251 C17.42732422 250.08154297 17.42732422 250.08154297 17.86328125 249.14453125 C19 247 19 247 21.1875 244.6875 C23.35113959 242.04736583 23.35113959 242.04736583 22.875 238.4375 C22.17977725 235.17567739 22.17977725 235.17567739 21.01171875 233.06640625 C19.93610607 230.86949849 19.42496873 228.89228351 18.9375 226.5 C18.62664166 224.99965892 18.31418673 223.49964761 18 222 C17.85691406 221.27039063 17.71382813 220.54078125 17.56640625 219.7890625 C17.15716308 217.78872335 17.15716308 217.78872335 15 216.875 C14.01 216.441875 14.01 216.441875 13 216 C11.11423177 212.22846353 11.49466267 207.81790183 12.6015625 203.8359375 C13.62075065 201.08721795 14.68949419 198.52295716 16.1875 196 C17.53755615 192.67678487 17.17244376 189.5638377 17 186 C16.67 185.34 16.34 184.68 16 184 C15.81295596 181.30986661 15.91418609 178.70313823 16 176 C16.33 175.67 16.66 175.34 17 175 C17.66923762 171.71256453 17.66923762 171.71256453 17 168 C15.3843668 166.28041184 13.63130406 164.95731379 11.75390625 163.53125 C7.50697214 159.82345898 6.72756365 154.32270251 6 149 C5.86159153 146.46073692 5.78057533 143.91784861 5.75 141.375 C5.72421875 140.08335937 5.6984375 138.79171875 5.671875 137.4609375 C6.0212372 133.77599812 6.62579809 132.6963298 9 130 C10.36708417 125.59495101 11.06421966 121.59107328 11.375 117 C11.73664805 112.62673751 12.94754379 109.65989654 15.1015625 105.87890625 C16.23642418 103.77872162 16.23642418 103.77872162 16.375 100.25 C17 97 17 97 19.6875 94.625 C22.92641611 93.03609776 25.46435639 92.50438552 29 92 C29.33910994 89.95928485 29.67102704 87.91737379 30 85.875 C30.2784375 84.16957031 30.2784375 84.16957031 30.5625 82.4296875 C30.97094364 79.22778108 31.15299699 76.22249903 31 73 C30.67 72.67 30.34 72.34 30 72 C29.5854305 65.98874223 30.47800258 62.54839433 33 57 C33.185625 55.329375 33.185625 55.329375 33.375 53.625 C33.97350395 50.15367708 34.63096821 48.76123738 36.4375 45.875 C41.78257215 36.74512243 42.07156645 24.31878804 41 14 C39.77009978 10.41002097 37.65265349 8.54387791 34.75 6.125 C30.85435371 4.53132652 28.2064973 4.59291962 24 5 C20.75178964 7.01613057 19.61268714 10.6280178 18 14 C17 15 17 15 14.4375 15.0625 C13.633125 15.041875 12.82875 15.02125 12 15 C11.90847656 14.38511719 11.81695312 13.77023438 11.72265625 13.13671875 C10.8901264 10.04798374 10.18351876 8.38202047 8 6 C2.63617365 3.91931467 -3.31622614 3.53983442 -9 3 C-5.78360346 1.25434889 -3.67986596 0.795563 0 1 C0 0.67 0 0.34 0 0 Z " fill="#2751AA" transform="translate(426,196)"/>
<path d="M0 0 C1.134375 0.020625 2.26875 0.04125 3.4375 0.0625 C3.4375 0.7225 3.4375 1.3825 3.4375 2.0625 C7.19149798 3.2664337 10.76967412 3.16127617 14.6875 3.125 C15.95078125 3.11597656 17.2140625 3.10695313 18.515625 3.09765625 C19.96195313 3.08025391 19.96195313 3.08025391 21.4375 3.0625 C21.4375 3.7225 21.4375 4.3825 21.4375 5.0625 C23.4175 5.0625 25.3975 5.0625 27.4375 5.0625 C27.4375 5.7225 27.4375 6.3825 27.4375 7.0625 C28.12457031 7.25585938 28.81164062 7.44921875 29.51953125 7.6484375 C30.87111328 8.03902344 30.87111328 8.03902344 32.25 8.4375 C33.58998047 8.82035156 33.58998047 8.82035156 34.95703125 9.2109375 C37.4375 10.0625 37.4375 10.0625 40.4375 12.0625 C40.4375 12.7225 40.4375 13.3825 40.4375 14.0625 C42.4175 14.3925 44.3975 14.7225 46.4375 15.0625 C45.4475 15.7225 44.4575 16.3825 43.4375 17.0625 C42.71590576 18.70613134 42.04398579 20.37300386 41.4375 22.0625 C40.9425 22.5575 40.9425 22.5575 40.4375 23.0625 C38.4765625 22.9765625 38.4765625 22.9765625 36.0625 22.6875 C35.27101563 22.59726562 34.47953125 22.50703125 33.6640625 22.4140625 C31.4375 22.0625 31.4375 22.0625 28.4375 21.0625 C23.10454568 20.719009 23.10454568 20.719009 18.4375 23.0625 C15.25 23.1875 15.25 23.1875 12.4375 23.0625 C11.4475 25.5375 11.4475 25.5375 10.4375 28.0625 C10.1075 27.4025 9.7775 26.7425 9.4375 26.0625 C8.65375 25.93875 7.87 25.815 7.0625 25.6875 C4.4375 25.0625 4.4375 25.0625 2.625 23 C2.0371875 22.0409375 2.0371875 22.0409375 1.4375 21.0625 C0.32375 21.31 0.32375 21.31 -0.8125 21.5625 C-4.99770139 22.32344571 -6.95837713 22.46524858 -10.5625 20.0625 C-11.79612884 16.27349714 -11.66315616 14.35917077 -10.375 10.5625 C-4.9501067 0.08684398 -4.9501067 0.08684398 0 0 Z " fill="#F1F3F9" transform="translate(619.5625,526.9375)"/>
<path d="M0 0 C30.03 0 60.06 0 91 0 C91 1.65 91 3.3 91 5 C60.97 5 30.94 5 0 5 C0 3.35 0 1.7 0 0 Z " fill="#47474C" transform="translate(918,626)"/>
<path d="M0 0 C1.65 0 3.3 0 5 0 C5.33 0.66 5.66 1.32 6 2 C8.01669827 3.13350534 8.01669827 3.13350534 10 4 C8.80259497 9.66046016 7.40661237 11.47471011 3 15 C2.32741333 17.33163378 1.66152556 19.6652039 1 22 C-2.62585306 28.6710535 -8.04622138 33.01087574 -15 36 C-15.66 35.67 -16.32 35.34 -17 35 C-15.6778481 29.93175104 -13.93479652 25.18304381 -11.921875 20.34765625 C-10.90232611 17.91019194 -10.90232611 17.91019194 -10.25 14.875 C-8.56291451 10.99470337 -5.8937978 8.7361868 -2.77734375 5.9296875 C-0.90683367 3.89884798 -0.38919294 2.69441263 0 0 Z " fill="#8BC0E7" transform="translate(694,226)"/>
<path d="M0 0 C19.47 0 38.94 0 59 0 C59 1.65 59 3.3 59 5 C48.77 5 38.54 5 28 5 C28 3.68 28 2.36 28 1 C18.76 1 9.52 1 0 1 C0 0.67 0 0.34 0 0 Z " fill="#303032" transform="translate(950,626)"/>
<path d="M0 0 C0.66 0.99 1.32 1.98 2 3 C2 2.01 2 1.02 2 0 C3.32 0.33 4.64 0.66 6 1 C6 3.64 6 6.28 6 9 C6.66 9 7.32 9 8 9 C8 9.66 8 10.32 8 11 C7.34 11 6.68 11 6 11 C6 13.64 6 16.28 6 19 C4.35 19.33 2.7 19.66 1 20 C2.65 20.33 4.3 20.66 6 21 C6 21.33 6 21.66 6 22 C4.02 22 2.04 22 0 22 C0 22.66 0 23.32 0 24 C1.65 24 3.3 24 5 24 C4.34 24.33 3.68 24.66 3 25 C3 26.32 3 27.64 3 29 C3.99 29 4.98 29 6 29 C5.505 31.475 5.505 31.475 5 34 C3.02 34.495 3.02 34.495 1 35 C0.566875 34.0409375 0.566875 34.0409375 0.125 33.0625 C-0.82823451 30.84793921 -0.82823451 30.84793921 -3 30 C-1.35 30 0.3 30 2 30 C2 28.35 2 26.7 2 25 C1.01 25 0.02 25 -1 25 C-1.02886984 21.02084841 -1.04675406 17.04172347 -1.0625 13.0625 C-1.07087891 11.92619141 -1.07925781 10.78988281 -1.08789062 9.61914062 C-1.09111328 8.53955078 -1.09433594 7.45996094 -1.09765625 6.34765625 C-1.10289307 5.34742432 -1.10812988 4.34719238 -1.11352539 3.31665039 C-1 1 -1 1 0 0 Z " fill="#3B454C" transform="translate(1026,607)"/>
<path d="M0 0 C31.35 0 62.7 0 95 0 C95 1.32 95 2.64 95 4 C94.01 3.505 94.01 3.505 93 3 C93.33 2.34 93.66 1.68 94 1 C88.06 1 82.12 1 76 1 C75.67 1.99 75.34 2.98 75 4 C75 3.01 75 2.02 75 1 C69.06 1 63.12 1 57 1 C57.495 2.485 57.495 2.485 58 4 C47.605 4.495 47.605 4.495 37 5 C37 3.68 37 2.36 37 1 C31.39 1 25.78 1 20 1 C19.67 1.99 19.34 2.98 19 4 C19 3.01 19 2.02 19 1 C13.06 1 7.12 1 1 1 C0.67 1.99 0.34 2.98 0 4 C0 2.68 0 1.36 0 0 Z " fill="#6E7070" transform="translate(918,615)"/>
<path d="M0 0 C4.42864971 0.5061314 6.84889946 1.84889946 10 5 C10.83984375 6.78515625 10.83984375 6.78515625 11.5625 8.6875 C12.60473893 12.12679793 12.60473893 12.12679793 15.1875 12.9375 C15.785625 12.958125 16.38375 12.97875 17 13 C17.2475 11.9275 17.495 10.855 17.75 9.75 C19.0384526 5.88464221 19.62208038 4.22231554 23 2 C28.82158913 1.33194879 32.80846085 2.06139293 38 5 C41.83560967 8.62747581 43.8939309 11.92548572 44.16796875 17.28515625 C44.17763672 19.15494141 44.17763672 19.15494141 44.1875 21.0625 C44.20167969 22.31160156 44.21585937 23.56070313 44.23046875 24.84765625 C44 28 44 28 42 30 C41.97421875 28.91460937 41.9484375 27.82921875 41.921875 26.7109375 C41.86556262 25.26558651 41.808216 23.82027556 41.75 22.375 C41.73582031 21.66214844 41.72164063 20.94929688 41.70703125 20.21484375 C41.47183025 15.08746204 40.31229477 12.10329054 37 8 C34.01004862 5.50837385 31.68313585 4.79239059 27.875 4.625 C24.19740003 4.69206772 24.19740003 4.69206772 22.1875 6.125 C20.58433202 8.65631786 19.29189609 11.29876272 18 14 C17 15 17 15 14.4375 15.0625 C13.633125 15.041875 12.82875 15.02125 12 15 C11.90847656 14.38511719 11.81695312 13.77023438 11.72265625 13.13671875 C10.8901264 10.04798374 10.18351876 8.38202047 8 6 C2.63617365 3.91931467 -3.31622614 3.53983442 -9 3 C-5.78360346 1.25434889 -3.67986596 0.795563 0 1 C0 0.67 0 0.34 0 0 Z " fill="#1C48A6" transform="translate(426,196)"/>
<path d="M0 0 C12.21 0 24.42 0 37 0 C37.495 1.98 37.495 1.98 38 4 C19.52 4 1.04 4 -18 4 C-18 3.67 -18 3.34 -18 3 C-12.06 2.67 -6.12 2.34 0 2 C0 1.34 0 0.68 0 0 Z " fill="#B7BDBD" transform="translate(975,616)"/>
<path d="M0 0 C-1.69337495 5.08012485 -6.53669208 7.33514262 -11 10 C-13.3803247 10.96386388 -15.46950588 11.50490332 -18 12 C-18.3125 8.6875 -18.3125 8.6875 -18 5 C-15.625 3 -15.625 3 -13 2 C-12.34 2.33 -11.68 2.66 -11 3 C-10.34 2.01 -9.68 1.02 -9 0 C-5.52176885 -1.15941038 -3.54104422 -0.70820884 0 0 Z " fill="#83B6E1" transform="translate(402,323)"/>
<path d="M0 0 C2 2 2 2 2.1953125 5.2578125 C2.16050781 7.17207031 2.16050781 7.17207031 2.125 9.125 C2.10695313 10.40632812 2.08890625 11.68765625 2.0703125 13.0078125 C2.04710937 13.99523437 2.02390625 14.98265625 2 16 C2.99 16 3.98 16 5 16 C4.67 16.33 4.34 16.66 4 17 C6.31 17.33 8.62 17.66 11 18 C11 18.66 11 19.32 11 20 C8.03 20.33 5.06 20.66 2 21 C1.67 23.64 1.34 26.28 1 29 C0.67 29 0.34 29 0 29 C-0.33 26.69 -0.66 24.38 -1 22 C-1.99 22.66 -2.98 23.32 -4 24 C-3.67 23.01 -3.34 22.02 -3 21 C-5.31 20.67 -7.62 20.34 -10 20 C-10 19.34 -10 18.68 -10 18 C-7.36 18 -4.72 18 -2 18 C-0.63887105 15.27774209 -0.90439043 13.09754415 -0.9375 10.0625 C-0.94652344 9.00160156 -0.95554687 7.94070313 -0.96484375 6.84765625 C-0.97644531 5.90792969 -0.98804688 4.96820312 -1 4 C-1 1 -1 1 0 0 Z " fill="#4D5153" transform="translate(893,618)"/>
<path d="M0 0 C1.2065625 0.0309375 1.2065625 0.0309375 2.4375 0.0625 C2.4375 1.0525 2.4375 2.0425 2.4375 3.0625 C1.7775 3.0625 1.1175 3.0625 0.4375 3.0625 C0.1075 4.3825 -0.2225 5.7025 -0.5625 7.0625 C-1.2225 7.0625 -1.8825 7.0625 -2.5625 7.0625 C-2.8925 6.4025 -3.2225 5.7425 -3.5625 5.0625 C-4.305 5.8875 -5.0475 6.7125 -5.8125 7.5625 C-8.5625 10.0625 -8.5625 10.0625 -12.5625 10.0625 C-12.2325 7.0925 -11.9025 4.1225 -11.5625 1.0625 C-10.263125 1.083125 -8.96375 1.10375 -7.625 1.125 C-6.27084367 1.14649454 -4.91493917 1.13398199 -3.5625 1.0625 C-2.5625 0.0625 -2.5625 0.0625 0 0 Z " fill="#81B0DD" transform="translate(615.5625,506.9375)"/>
<path d="M0 0 C0.66 0.33 1.32 0.66 2 1 C0.87720538 1.98169476 -0.24831473 2.96027298 -1.375 3.9375 C-2.00148438 4.48277344 -2.62796875 5.02804687 -3.2734375 5.58984375 C-5 7 -5 7 -7 8 C-6.58071383 12.89167203 -4.55713565 14.76624032 -1 18 C1.58003406 20.45717529 3.73766191 22.55927201 5.5625 25.625 C7.15569104 28.25722868 8.2978313 29.53310842 11 31 C14.16732421 31.25086724 14.16732421 31.25086724 17 31 C17 31.66 17 32.32 17 33 C13.92205363 33.43199247 11.97416688 33.6835366 9 33 C6.22326108 30.67093939 4.18381903 27.87598771 2 25 C0.35305515 23.31384218 -1.31126121 21.64429829 -3 20 C-5.67179526 17.39033952 -7.92570221 15.11144669 -10 12 C-9.9375 9.5625 -9.9375 9.5625 -9 7 C-6.6875 4.875 -6.6875 4.875 -4 3 C-3.236875 2.4225 -2.47375 1.845 -1.6875 1.25 C-1.130625 0.8375 -0.57375 0.425 0 0 Z " fill="#1F4BA7" transform="translate(414,567)"/>
<path d="M0 0 C9.57 0 19.14 0 29 0 C29 0.99 29 1.98 29 3 C19.76 3 10.52 3 1 3 C0.67 2.01 0.34 1.02 0 0 Z " fill="#EBEBEB" transform="translate(979,627)"/>
<path d="M0 0 C9.57 0 19.14 0 29 0 C29 0.99 29 1.98 29 3 C19.76 3 10.52 3 1 3 C0.67 2.01 0.34 1.02 0 0 Z " fill="#C5CACA" transform="translate(949,627)"/>
<path d="M0 0 C9.57 0 19.14 0 29 0 C29 0.99 29 1.98 29 3 C19.76 3 10.52 3 1 3 C0.67 2.01 0.34 1.02 0 0 Z " fill="#EBEBEB" transform="translate(919,627)"/>
<path d="M0 0 C2.42776667 1.29480889 3.76967674 2.35838519 4.7109375 4.98046875 C5.19782198 6.9738726 5.60391861 8.98658625 6 11 C7.79240663 10.88610125 9.58394835 10.75852313 11.375 10.625 C12.37273437 10.55539063 13.37046875 10.48578125 14.3984375 10.4140625 C17.15508879 10.23636036 17.15508879 10.23636036 19 8 C18.625 9.9375 18.625 9.9375 18 12 C17.01 12.495 17.01 12.495 16 13 C15.67 13.99 15.34 14.98 15 16 C11.44289519 15.3902106 8.18919414 14.72388873 5 13 C3.6875 10.375 3.6875 10.375 3 8 C2.0409375 8.2784375 2.0409375 8.2784375 1.0625 8.5625 C0.381875 8.706875 -0.29875 8.85125 -1 9 C-2 8 -2 8 -2.0625 4.9375 C-2.041875 3.968125 -2.02125 2.99875 -2 2 C-1.67 2 -1.34 2 -1 2 C-1 3.65 -1 5.3 -1 7 C-0.34 6.67 0.32 6.34 1 6 C0.67 5.67 0.34 5.34 0 5 C-0.04063832 3.33382885 -0.042721 1.66611905 0 0 Z " fill="#3E5A8C" transform="translate(122,216)"/>
<path d="M0 0 C0.66 0.99 1.32 1.98 2 3 C2 2.01 2 1.02 2 0 C3.32 0.33 4.64 0.66 6 1 C6 3.64 6 6.28 6 9 C6.66 9 7.32 9 8 9 C8 9.66 8 10.32 8 11 C7.34 11 6.68 11 6 11 C5.67 12.32 5.34 13.64 5 15 C4.34 15 3.68 15 3 15 C3 14.34 3 13.68 3 13 C1.68 12.34 0.36 11.68 -1 11 C-1.02688151 9.35425434 -1.04634123 7.70838587 -1.0625 6.0625 C-1.07410156 5.14597656 -1.08570313 4.22945312 -1.09765625 3.28515625 C-1 1 -1 1 0 0 Z " fill="#596772" transform="translate(1026,607)"/>
<path d="M0 0 C-0.99 4.29 -1.98 8.58 -3 13 C-4.98 13 -6.96 13 -9 13 C-9.93007204 10.44230189 -10.28739184 8.70731153 -9.24609375 6.14453125 C-6.50516388 1.23917705 -5.68827681 0 0 0 Z " fill="#72A2D6" transform="translate(753,232)"/>
<path d="M0 0 C-2 2 -2 2 -4.3828125 2.1953125 C-5.28773438 2.17210937 -6.19265625 2.14890625 -7.125 2.125 C-8.49011719 2.09792969 -8.49011719 2.09792969 -9.8828125 2.0703125 C-10.58148438 2.04710937 -11.28015625 2.02390625 -12 2 C-13.29278331 6.67313525 -13.29278331 6.67313525 -11.953125 11.1875 C-11.02038737 12.69664852 -10.08546364 14.20444795 -9.1484375 15.7109375 C-7.35698312 19.2816595 -7.64306907 22.07375975 -8 26 C-8.66 26.33 -9.32 26.66 -10 27 C-10.061875 25.700625 -10.12375 24.40125 -10.1875 23.0625 C-10.58442272 19.17876388 -11.587393 16.63137235 -13.625 13.3125 C-15.45779017 10.27727235 -16 9.28062405 -16 5.625 C-14.94966767 2.86787764 -14.28564015 1.80204145 -12 0 C-9.58984375 -0.546875 -9.58984375 -0.546875 -6.9375 -0.75 C-5.62072266 -0.86601562 -5.62072266 -0.86601562 -4.27734375 -0.984375 C-2 -1 -2 -1 0 0 Z " fill="#1C49A5" transform="translate(445,447)"/>
<path d="M0 0 C5.94 0 11.88 0 18 0 C18.33 1.32 18.66 2.64 19 4 C12.4 4 5.8 4 -1 4 C-0.67 2.68 -0.34 1.36 0 0 Z " fill="#A7AEAE" transform="translate(919,616)"/>
<path d="M0 0 C5.94 0 11.88 0 18 0 C18.33 1.32 18.66 2.64 19 4 C12.4 4 5.8 4 -1 4 C-0.67 2.68 -0.34 1.36 0 0 Z " fill="#A8B0B0" transform="translate(994,616)"/>
<path d="M0 0 C1.4540625 0.0309375 1.4540625 0.0309375 2.9375 0.0625 C2.9375 0.7225 2.9375 1.3825 2.9375 2.0625 C1.2875 2.3925 -0.3625 2.7225 -2.0625 3.0625 C-0.4125 3.3925 1.2375 3.7225 2.9375 4.0625 C2.9375 4.3925 2.9375 4.7225 2.9375 5.0625 C0.9575 5.0625 -1.0225 5.0625 -3.0625 5.0625 C-3.0625 5.7225 -3.0625 6.3825 -3.0625 7.0625 C-1.0825 7.0625 0.8975 7.0625 2.9375 7.0625 C3.0625 9.9375 3.0625 9.9375 2.9375 13.0625 C2.2775 13.7225 1.6175 14.3825 0.9375 15.0625 C-1.1875 14.6875 -1.1875 14.6875 -3.0625 14.0625 C-4.16674872 9.64550512 -4.21338074 5.58892225 -4.0625 1.0625 C-3.0625 0.0625 -3.0625 0.0625 0 0 Z " fill="#4B5861" transform="translate(1029.0625,582.9375)"/>
<path d="M0 0 C5.61 0 11.22 0 17 0 C17 1.32 17 2.64 17 4 C11.39 4 5.78 4 0 4 C0 2.68 0 1.36 0 0 Z " fill="#C3C7C7" transform="translate(938,616)"/>
<path d="M0 0 C3.01617043 2.48687033 3.67969392 4.746813 4.5625 8.5 C5.38816105 11.97057527 5.9935516 13.9903274 8 17 C8.5342728 21.00704597 8.16865102 22.70767156 6.125 26.25 C4 29 4 29 2 31 C1.01 30.67 0.02 30.34 -1 30 C-0.55527344 29.57589844 -0.11054688 29.15179688 0.34765625 28.71484375 C4.25376497 24.72904796 4.25376497 24.72904796 5 19.3125 C4.17676182 16.17587456 4.17676182 16.17587456 3.0078125 14.18359375 C1.72488976 11.40392781 1.33487469 8.77203365 0.875 5.75 C0.62363281 4.13351562 0.62363281 4.13351562 0.3671875 2.484375 C0.24601562 1.66453125 0.12484375 0.8446875 0 0 Z " fill="#244FA9" transform="translate(444,415)"/>
<path d="M0 0 C0.33 0 0.66 0 1 0 C1.54621758 13.45313677 1.54621758 13.45313677 -2 20 C-4.12435234 24.2714656 -4.24141471 28.13352398 -4.125 32.8125 C-4.11597656 33.50537109 -4.10695313 34.19824219 -4.09765625 34.91210938 C-4.07426157 36.60822395 -4.03839641 38.30415871 -4 40 C-6.3949789 36.25963455 -6.29961204 32.86472395 -6.3125 28.5 C-6.32925781 27.1903125 -6.34601563 25.880625 -6.36328125 24.53125 C-5.98081402 20.81350398 -5.39337991 19.7189278 -3 17 C-1.28497258 11.37852124 -0.51404638 5.84389573 0 0 Z " fill="#1946A5" transform="translate(438,309)"/>
<path d="M0 0 C4.42864971 0.5061314 6.84889946 1.84889946 10 5 C11.03842565 7.31648799 12.0421975 9.64903024 13 12 C13.99 12.66 14.98 13.32 16 14 C14.68 14.33 13.36 14.66 12 15 C11.90847656 14.38511719 11.81695312 13.77023438 11.72265625 13.13671875 C10.8901264 10.04798374 10.18351876 8.38202047 8 6 C2.63617365 3.91931467 -3.31622614 3.53983442 -9 3 C-5.78360346 1.25434889 -3.67986596 0.795563 0 1 C0 0.67 0 0.34 0 0 Z " fill="#2650A9" transform="translate(426,196)"/>
<path d="M0 0 C2.5625 0.1875 2.5625 0.1875 4.5625 2.1875 C4.1875 4.8125 4.1875 4.8125 3.5625 7.1875 C2.9025 7.1875 2.2425 7.1875 1.5625 7.1875 C0.5725 7.496875 0.5725 7.496875 -0.4375 7.8125 C-1.0975 7.93625 -1.7575 8.06 -2.4375 8.1875 C-3.0975 7.5275 -3.7575 6.8675 -4.4375 6.1875 C-3.71780303 0.28598485 -3.71780303 0.28598485 0 0 Z " fill="#444F56" transform="translate(1027.4375,644.8125)"/>
<path d="M0 0 C0.99 0.33 1.98 0.66 3 1 C2.67 1.66 2.34 2.32 2 3 C1.34 2.67 0.68 2.34 0 2 C0 3.32 0 4.64 0 6 C3.37088267 3.72584713 3.37088267 3.72584713 5 0 C6.32 0.33 7.64 0.66 9 1 C9 2.98 9 4.96 9 7 C5.7 7 2.4 7 -1 7 C-1.625 4.625 -1.625 4.625 -2 2 C-1.34 1.34 -0.68 0.68 0 0 Z " fill="#7E8386" transform="translate(823,641)"/>
<path d="M0 0 C0.5775 0.226875 1.155 0.45375 1.75 0.6875 C0.96625 1.0175 0.1825 1.3475 -0.625 1.6875 C-3.76169441 4.07736241 -4.06382639 5.86707943 -4.78515625 9.65234375 C-5.25 11.6875 -5.25 11.6875 -6.8125 14.5625 C-8.78665803 18.85414789 -8.98207691 23.012704 -9.25 27.6875 C-9.58 27.6875 -9.91 27.6875 -10.25 27.6875 C-11.45621042 21.28934038 -11.58798388 17.21841509 -8.2265625 11.5703125 C-7.00090035 9.46911052 -7.00090035 9.46911052 -6.75 5.875 C-6.25 2.6875 -6.25 2.6875 -4.4375 0.6875 C-2.25 -0.3125 -2.25 -0.3125 0 0 Z " fill="#3059AE" transform="translate(449.25,290.3125)"/>
<path d="M0 0 C1.485 0.99 1.485 0.99 3 2 C5.09821215 1.60061233 5.09821215 1.60061233 7 1 C8 2 8 2 8.125 4.5 C8 7 8 7 7 8 C4.66702567 8.04092937 2.33294775 8.04241723 0 8 C0 5.36 0 2.72 0 0 Z " fill="#8C9497" transform="translate(833,640)"/>
<path d="M0 0 C6.625 -0.25 6.625 -0.25 10 2 C9.67 3.32 9.34 4.64 9 6 C6.75 6.75 6.75 6.75 4 7 C1.6875 5.25 1.6875 5.25 0 3 C0 2.01 0 1.02 0 0 Z " fill="#76A8D9" transform="translate(811,385)"/>
<path d="M0 0 C2 2 2 2 2.15234375 4.25 C1.65511067 10.61458349 0.23051887 15.18559703 -2.85546875 20.76171875 C-4.23872365 23.46685546 -4.76159487 25.98020166 -5 29 C-5.33 29 -5.66 29 -6 29 C-7.59636758 23.22851721 -7.59636758 23.22851721 -6.0234375 19.98828125 C-5.58257812 19.29089844 -5.14171875 18.59351563 -4.6875 17.875 C-1.2026349 12.28953565 -0.66793581 6.45006673 0 0 Z " fill="#2751AA" transform="translate(467,224)"/>
<path d="M0 0 C2.31 0 4.62 0 7 0 C7 2.31 7 4.62 7 7 C4.69 7 2.38 7 0 7 C0 4.69 0 2.38 0 0 Z " fill="#D6DCDC" transform="translate(789,640)"/>
<path d="M0 0 C1.32 0 2.64 0 4 0 C5.125 6.75 5.125 6.75 4 9 C2.35 8.67 0.7 8.34 -1 8 C-1.04241723 5.66705225 -1.04092937 3.33297433 -1 1 C-0.67 0.67 -0.34 0.34 0 0 Z " fill="#757D82" transform="translate(957,636)"/>
<path d="M0 0 C0.33 0 0.66 0 1 0 C2.54533244 5.82471457 2.54533244 5.82471457 1.09375 8.953125 C-0.76676076 11.65313452 -2.20720631 13.61492878 -5.1875 15.0625 C-7.37193965 15.94193997 -7.37193965 15.94193997 -8.25 19.125 C-8.4975 20.07375 -8.745 21.0225 -9 22 C-9.99 21.67 -10.98 21.34 -12 21 C-8.93933464 13.58238748 -8.93933464 13.58238748 -4.875 11.0625 C-1.60477729 8.71647067 -1.44522682 8.01718463 -0.625 4.25 C-0.39255345 2.83708959 -0.17611081 1.42103209 0 0 Z " fill="#365DB0" transform="translate(426,545)"/>
<path d="M0 0 C1.32 0.66 2.64 1.32 4 2 C4.042721 3.66611905 4.04063832 5.33382885 4 7 C3 8 3 8 0.5 8.125 C-2 8 -2 8 -3 7 C-3.25 4.5625 -3.25 4.5625 -3 2 C-2.01 1.34 -1.02 0.68 0 0 Z " fill="#D2D9D9" transform="translate(771,639)"/>
<path d="M0 0 C2.0625 0.4375 2.0625 0.4375 4 1 C4 3.31 4 5.62 4 8 C2.68 8.33 1.36 8.66 0 9 C-2 6 -2 6 -1.6875 3.375 C-1 1 -1 1 0 0 Z " fill="#747C81" transform="translate(958,599)"/>
<path d="M0 0 C1.8125 0.125 1.8125 0.125 4 1 C6.30048443 4.41106312 7.06986521 6.24545576 6.6875 10.375 C6.460625 11.24125 6.23375 12.1075 6 13 C7.65 12.67 9.3 12.34 11 12 C11.66 13.65 12.32 15.3 13 17 C12.34 17.33 11.68 17.66 11 18 C10.67 16.68 10.34 15.36 10 14 C8.02 14.33 6.04 14.66 4 15 C4.33 11.7 4.66 8.4 5 5 C4.01 4.67 3.02 4.34 2 4 C0.8125 1.9375 0.8125 1.9375 0 0 Z " fill="#535C63" transform="translate(184,544)"/>
<path d="M0 0 C4.41889613 1.35021826 6.34345343 3.26115668 9 7 C8.34 7.66 7.68 8.32 7 9 C4.875 8.625 4.875 8.625 3 8 C3 7.34 3 6.68 3 6 C2.01 5.67 1.02 5.34 0 5 C-0.33 4.01 -0.66 3.02 -1 2 C-0.67 1.34 -0.34 0.68 0 0 Z " fill="#6899D2" transform="translate(600,455)"/>
<path d="M0 0 C5.75 0.75 5.75 0.75 8 3 C8.4140625 5.1640625 8.4140625 5.1640625 8.625 7.625 C8.69976563 8.44226563 8.77453125 9.25953125 8.8515625 10.1015625 C8.92503906 11.04128906 8.92503906 11.04128906 9 12 C8.01 11.67 7.02 11.34 6 11 C4.98470459 8.67328135 3.98511802 6.3396553 3 4 C2.01 3.34 1.02 2.68 0 2 C0 1.34 0 0.68 0 0 Z " fill="#5483C6" transform="translate(731,240)"/>
<path d="M0 0 C0.66 0.66 1.32 1.32 2 2 C1.38511719 2.03738281 0.77023437 2.07476562 0.13671875 2.11328125 C-1.07564453 2.21189453 -1.07564453 2.21189453 -2.3125 2.3125 C-3.11300781 2.37050781 -3.91351563 2.42851562 -4.73828125 2.48828125 C-7.42571105 3.09631804 -8.31855414 3.85120363 -10 6 C-10.45375 7.03125 -10.9075 8.0625 -11.375 9.125 C-13 12 -13 12 -15.6875 12.875 C-16.450625 12.91625 -17.21375 12.9575 -18 13 C-17.401875 12.46375 -16.80375 11.9275 -16.1875 11.375 C-13.7805125 8.76169929 -12.55453446 6.17665737 -11 3 C-8.32724649 -1.22013713 -4.53848114 -0.36019692 0 0 Z " fill="#1B47A6" transform="translate(457,198)"/>
<path d="M0 0 C0.66 0 1.32 0 2 0 C2.33 1.65 2.66 3.3 3 5 C3.66 5 4.32 5 5 5 C5.33 3.35 5.66 1.7 6 0 C6.66 0 7.32 0 8 0 C8 2.97 8 5.94 8 9 C7.34 8.01 6.68 7.02 6 6 C5.67 6.99 5.34 7.98 5 9 C4.34 9 3.68 9 3 9 C2.67 8.34 2.34 7.68 2 7 C1.34 7.66 0.68 8.32 0 9 C0 6.03 0 3.06 0 0 Z " fill="#696D6E" transform="translate(803,639)"/>
<path d="M0 0 C0.33 0.99 0.66 1.98 1 3 C0.01 3.66 -0.98 4.32 -2 5 C-2.33 5.99 -2.66 6.98 -3 8 C-4.65 7.67 -6.3 7.34 -8 7 C-8.33 6.01 -8.66 5.02 -9 4 C-9.66 3.67 -10.32 3.34 -11 3 C-10.28972656 2.95101562 -9.57945312 2.90203125 -8.84765625 2.8515625 C-7.46900391 2.73941406 -7.46900391 2.73941406 -6.0625 2.625 C-5.14597656 2.55539063 -4.22945312 2.48578125 -3.28515625 2.4140625 C-2.15400391 2.20910156 -2.15400391 2.20910156 -1 2 C-0.67 1.34 -0.34 0.68 0 0 Z " fill="#5F7A9A" transform="translate(140,224)"/>
<path d="M0 0 C0 0.99 0 1.98 0 3 C-0.66 3 -1.32 3 -2 3 C-2.33 4.32 -2.66 5.64 -3 7 C-3.66 7 -4.32 7 -5 7 C-5.2475 6.360625 -5.495 5.72125 -5.75 5.0625 C-6.81562433 2.81258459 -6.81562433 2.81258459 -9.125 2.25 C-10.053125 2.12625 -10.053125 2.12625 -11 2 C-7.17679443 0.57741188 -4.08718695 -0.24042276 0 0 Z " fill="#5483C6" transform="translate(618,507)"/>
<path d="M0 0 C0.66 0.33 1.32 0.66 2 1 C1.67 2.98 1.34 4.96 1 7 C4.3 6.67 7.6 6.34 11 6 C11 6.66 11 7.32 11 8 C8.36 8 5.72 8 3 8 C3 8.66 3 9.32 3 10 C3.99 10.33 4.98 10.66 6 11 C4.02 11 2.04 11 0 11 C-1.26026798 8.47946405 -0.91874445 7.1457902 -0.5625 4.375 C-0.46066406 3.55773437 -0.35882812 2.74046875 -0.25390625 1.8984375 C-0.17011719 1.27195312 -0.08632813 0.64546875 0 0 Z " fill="#6C89C5" transform="translate(622,328)"/>
<path d="M0 0 C0.99 0 1.98 0 3 0 C6 6.625 6 6.625 6 10 C5.34 10 4.68 10 4 10 C3.67 8.02 3.34 6.04 3 4 C2.34 4 1.68 4 1 4 C1 5.98 1 7.96 1 10 C0.01 9.67 -0.98 9.34 -2 9 C-1.34 6.03 -0.68 3.06 0 0 Z " fill="#656769" transform="translate(891,601)"/>
<path d="M0 0 C0 0.99 0 1.98 0 3 C-0.598125 3.556875 -1.19625 4.11375 -1.8125 4.6875 C-4.80039128 7.84612792 -5.6299096 10.88972879 -7 15 C-8.53841145 11.9231771 -7.63078365 9.46436465 -6.87890625 6.19921875 C-5.45687596 2.64098295 -3.35667132 1.67833566 0 0 Z " fill="#90A6D3" transform="translate(641,319)"/>
<path d="M0 0 C5.01009707 1.43145631 7.10619424 3.82951522 10 8 C9.67 8.99 9.34 9.98 9 11 C8.46375 10.2575 7.9275 9.515 7.375 8.75 C4.84735261 5.82325039 2.28172632 4.01378661 -1 2 C-0.67 1.34 -0.34 0.68 0 0 Z " fill="#2F58AD" transform="translate(459,199)"/>
<path d="M0 0 C0 0.66 0 1.32 0 2 C-1.6396875 2.6496875 -1.6396875 2.6496875 -3.3125 3.3125 C-6.13790298 4.50873916 -7.92568798 5.70733935 -10 8 C-10.66 8 -11.32 8 -12 8 C-11.62724214 5.29750549 -11.21551151 4.20064865 -9.1875 2.3125 C-6.0011265 0.4006759 -3.69970887 0 0 0 Z " fill="#A7B8DD" transform="translate(887,93)"/>
<path d="M0 0 C0.66 0.66 1.32 1.32 2 2 C1.8125 4 1.8125 4 1 6 C0.01 6.66 -0.98 7.32 -2 8 C-1.67 7.01 -1.34 6.02 -1 5 C-3.31 4.67 -5.62 4.34 -8 4 C-8 3.34 -8 2.68 -8 2 C-5.36 2 -2.72 2 0 2 C0 1.34 0 0.68 0 0 Z " fill="#7A8186" transform="translate(891,634)"/>
<path d="M0 0 C0.66 0.99 1.32 1.98 2 3 C2 2.01 2 1.02 2 0 C3.32 0.33 4.64 0.66 6 1 C5.67 2.65 5.34 4.3 5 6 C3.35 6 1.7 6 0 6 C-0.38218767 4.34385343 -0.71395102 2.67542976 -1 1 C-0.67 0.67 -0.34 0.34 0 0 Z " fill="#4A575F" transform="translate(1026,607)"/>
<path d="M0 0 C-0.33 1.98 -0.66 3.96 -1 6 C-2.32 6.33 -3.64 6.66 -5 7 C-6 4 -6 4 -5 1 C-2 0 -2 0 0 0 Z " fill="#6393CF" transform="translate(828,379)"/>
<path d="M0 0 C1.65 0.33 3.3 0.66 5 1 C4.67 1.99 4.34 2.98 4 4 C-0.29 3.67 -4.58 3.34 -9 3 C-5.23312136 1.11656068 -3.97041037 0.77942165 0 1 C0 0.67 0 0.34 0 0 Z " fill="#304059" transform="translate(426,196)"/>
<path d="M0 0 C1.65 1.65 3.3 3.3 5 5 C4.01 6.485 4.01 6.485 3 8 C2.34 8 1.68 8 1 8 C0.67 6.68 0.34 5.36 0 4 C-0.66 4 -1.32 4 -2 4 C-2 3.34 -2 2.68 -2 2 C-1.34 2 -0.68 2 0 2 C0 1.34 0 0.68 0 0 Z " fill="#99AFD8" transform="translate(676,385)"/>
<path d="M0 0 C4.55384615 -0.36923077 4.55384615 -0.36923077 6.8125 1.5 C7.204375 1.995 7.59625 2.49 8 3 C8.66 2.67 9.32 2.34 10 2 C9.67 3.32 9.34 4.64 9 6 C6 5 6 5 4 2 C3.34 2 2.68 2 2 2 C1.34 3.32 0.68 4.64 0 6 C-1 3 -1 3 0 0 Z " fill="#5B646A" transform="translate(85,284)"/>
<path d="M0 0 C0.99 0.33 1.98 0.66 3 1 C2.38511719 1.65355469 2.38511719 1.65355469 1.7578125 2.3203125 C-1.61090002 6.04362634 -3.78240479 9.00785965 -5 14 C-6.10652097 10.68043709 -5.95237748 10.11203583 -4.75 7 C-4.49734375 6.319375 -4.2446875 5.63875 -3.984375 4.9375 C-2.92652842 2.85538927 -1.72779885 1.55307761 0 0 Z " fill="#59636A" transform="translate(814,405)"/>
<path d="M0 0 C0.99 0.33 1.98 0.66 3 1 C3.33 3.64 3.66 6.28 4 9 C1.525 8.01 1.525 8.01 -1 7 C-0.67 4.69 -0.34 2.38 0 0 Z " fill="#9FD6F4" transform="translate(784,224)"/>
<path d="M0 0 C1.9823799 1.63761818 2.93205864 2.8118547 3.8125 5.25 C4.05627973 8.82543602 3.12502558 11.62492325 2 15 C1.66666667 13.66666667 1.33333333 12.33333333 1 11 C0.814375 10.34 0.62875 9.68 0.4375 9 C-0.21527854 6.01586952 0 3.04250892 0 0 Z " fill="#627599" transform="translate(914,76)"/>
<path d="M0 0 C1.65 0 3.3 0 5 0 C5.625 1.875 5.625 1.875 6 4 C5.34 4.66 4.68 5.32 4 6 C4 5.34 4 4.68 4 4 C2.68 4 1.36 4 0 4 C0 2.68 0 1.36 0 0 Z " fill="#6A7B87" transform="translate(1026,646)"/>
<path d="M0 0 C0.66 0 1.32 0 2 0 C2 0.66 2 1.32 2 2 C7.61 2 13.22 2 19 2 C19 2.33 19 2.66 19 3 C9.595 3.495 9.595 3.495 0 4 C0 2.68 0 1.36 0 0 Z " fill="#6D6E6E" transform="translate(955,616)"/>
<path d="M0 0 C0.99 0 1.98 0 3 0 C4.42944945 2.35438733 5.08661261 3.48032433 4.625 6.25 C4.41875 6.8275 4.2125 7.405 4 8 C3.01 7.67 2.02 7.34 1 7 C0.67 4.69 0.34 2.38 0 0 Z " fill="#849DCF" transform="translate(666,402)"/>
<path d="M0 0 C0.66 0.33 1.32 0.66 2 1 C2 1.66 2 2.32 2 3 C-2.95 4.485 -2.95 4.485 -8 6 C-8 6.99 -8 7.98 -8 9 C-8.99 8.67 -9.98 8.34 -11 8 C-10.2890625 6.078125 -10.2890625 6.078125 -9 4 C-6.8359375 3.171875 -6.8359375 3.171875 -4.375 2.75 C-3.14910156 2.52570313 -3.14910156 2.52570313 -1.8984375 2.296875 C-1.27195312 2.19890625 -0.64546875 2.1009375 0 2 C0 1.34 0 0.68 0 0 Z " fill="#7A93CB" transform="translate(628,339)"/>
<path d="M0 0 C-0.33 1.65 -0.66 3.3 -1 5 C-2.32 5.33 -3.64 5.66 -5 6 C-5.33 4.68 -5.66 3.36 -6 2 C-3 0 -3 0 0 0 Z " fill="#61717C" transform="translate(1032,636)"/>
<path d="M0 0 C2.475 0.495 2.475 0.495 5 1 C5 2.65 5 4.3 5 6 C3.35 5.67 1.7 5.34 0 5 C0 3.35 0 1.7 0 0 Z " fill="#7B8082" transform="translate(812,642)"/>
<path d="M0 0 C1.32 0 2.64 0 4 0 C4 3.27275026 3.70074844 5.846632 3 9 C1.68 8.67 0.36 8.34 -1 8 C-0.01 7.67 0.98 7.34 2 7 C2 6.34 2 5.68 2 5 C1.34 4.67 0.68 4.34 0 4 C0 2.68 0 1.36 0 0 Z " fill="#51575A" transform="translate(951,599)"/>
<path d="M0 0 C1.32 0.66 2.64 1.32 4 2 C4 1.34 4 0.68 4 0 C4.66 0 5.32 0 6 0 C5.79375 0.61875 5.5875 1.2375 5.375 1.875 C5.25125 2.57625 5.1275 3.2775 5 4 C5.66 4.66 6.32 5.32 7 6 C5.68 6 4.36 6 3 6 C2.34 5.01 1.68 4.02 1 3 C0.01 3.495 0.01 3.495 -1 4 C-0.67 2.68 -0.34 1.36 0 0 Z " fill="#2E3843" transform="translate(212,582)"/>
<path d="M0 0 C1.32 0.33 2.64 0.66 4 1 C3.0409375 1.86625 3.0409375 1.86625 2.0625 2.75 C0.01776132 4.98062401 -0.58205199 6.07436391 -1 9 C-1.99 8.67 -2.98 8.34 -4 8 C-2.68 5.36 -1.36 2.72 0 0 Z " fill="#2953AB" transform="translate(418,558)"/>
<path d="M0 0 C-0.33 1.32 -0.66 2.64 -1 4 C-2.32 4.33 -3.64 4.66 -5 5 C-5.33 3.35 -5.66 1.7 -6 0 C-3.50907189 -1.24546405 -2.58919267 -0.7767578 0 0 Z " fill="#5380C4" transform="translate(741,254)"/>
<path d="M0 0 C0.99 0.33 1.98 0.66 3 1 C2.34 1.66 1.68 2.32 1 3 C0.24223736 4.68698982 -0.46111782 6.39890633 -1.125 8.125 C-1.47820313 9.03507813 -1.83140625 9.94515625 -2.1953125 10.8828125 C-2.46085938 11.58148438 -2.72640625 12.28015625 -3 13 C-4.45995282 8.62014153 -2.7957564 5.67993018 -0.875 1.625 C-0.58625 1.08875 -0.2975 0.5525 0 0 Z " fill="#7692C9" transform="translate(733,208)"/>
<path d="M0 0 C0.66 0.33 1.32 0.66 2 1 C0.92130607 1.96355244 -0.16318743 2.92061417 -1.25 3.875 C-1.85328125 4.40867187 -2.4565625 4.94234375 -3.078125 5.4921875 C-4.97418746 6.9797487 -6.81290005 8.00322436 -9 9 C-7.48328036 4.44984107 -3.83108947 2.49942736 0 0 Z " fill="#1341A2" transform="translate(414,567)"/>
<path d="M0 0 C2.89932357 2.39509338 3.50168276 4.31245243 4 8 C2.68 8 1.36 8 0 8 C0 5.36 0 2.72 0 0 Z " fill="#81898C" transform="translate(833,640)"/>
<path d="M0 0 C6.4 0.49230769 6.4 0.49230769 9.4375 3.0625 C10.2109375 4.0215625 10.2109375 4.0215625 11 5 C3.49230769 4.50769231 3.49230769 4.50769231 1 1.9375 C0.67 1.298125 0.34 0.65875 0 0 Z " fill="#506288" transform="translate(660,540)"/>
<path d="M0 0 C1.67542976 0.28604898 3.34385343 0.61781233 5 1 C3.68 1.33 2.36 1.66 1 2 C0.67 4.97 0.34 7.94 0 11 C-0.33 11 -0.66 11 -1 11 C-1.02688151 9.35425434 -1.04634123 7.70838587 -1.0625 6.0625 C-1.07410156 5.14597656 -1.08570312 4.22945313 -1.09765625 3.28515625 C-1 1 -1 1 0 0 Z " fill="#565D61" transform="translate(84,317)"/>
<path d="M0 0 C2 0 2 0 3.625 1.375 C5 3 5 3 5 5 C4.195625 5.12375 3.39125 5.2475 2.5625 5.375 C1.2940625 5.684375 1.2940625 5.684375 0 6 C-0.33 6.66 -0.66 7.32 -1 8 C-1.93065133 5.39417629 -2.14917407 4.35801776 -1.0625 1.75 C-0.711875 1.1725 -0.36125 0.595 0 0 Z " fill="#889FD0" transform="translate(930,136)"/>
<path d="M0 0 C0.99 0.99 1.98 1.98 3 3 C1.9375 5 1.9375 5 0 7 C-3.6875 7.25 -3.6875 7.25 -7 7 C-6.67 6.34 -6.34 5.68 -6 5 C-4.35 5 -2.7 5 -1 5 C-0.67 3.35 -0.34 1.7 0 0 Z " fill="#8A9094" transform="translate(775,641)"/>
<path d="M0 0 C2.32472205 2.85306797 3.7508258 5.54074837 5 9 C3.35 9 1.7 9 0 9 C0 6.03 0 3.06 0 0 Z " fill="#35383B" transform="translate(967,599)"/>
<path d="M0 0 C0.99 0.33 1.98 0.66 3 1 C1.9375 3 1.9375 3 0 5 C-3.6875 5.25 -3.6875 5.25 -7 5 C-6.01 4.01 -5.02 3.02 -4 2 C-3.34 2.33 -2.68 2.66 -2 3 C-1.34 2.01 -0.68 1.02 0 0 Z " fill="#5F91CE" transform="translate(393,323)"/>
<path d="M0 0 C0.99 0.33 1.98 0.66 3 1 C3.6875 3.0625 3.6875 3.0625 4 5 C3.01 4.34 2.02 3.68 1 3 C-0.32 4.32 -1.64 5.64 -3 7 C-3 5.68 -3 4.36 -3 3 C-2.34 3 -1.68 3 -1 3 C-0.67 2.01 -0.34 1.02 0 0 Z " fill="#869FD0" transform="translate(771,148)"/>
<path d="M0 0 C1.32 0.33 2.64 0.66 4 1 C4 2.65 4 4.3 4 6 C2.68 5.34 1.36 4.68 0 4 C0 2.68 0 1.36 0 0 Z " fill="#A8B4BB" transform="translate(970,602)"/>
<path d="M0 0 C0.70125 0.495 1.4025 0.99 2.125 1.5 C5.37119719 3.1936681 7.39340156 3.25162315 11 3 C11 3.66 11 4.32 11 5 C3.5340751 5.36717663 3.5340751 5.36717663 1 3.625 C0 2 0 2 0 0 Z " fill="#1F396C" transform="translate(420,595)"/>
<path d="M0 0 C2.475 0.99 2.475 0.99 5 2 C5 2.66 5 3.32 5 4 C5.99 4.66 6.98 5.32 8 6 C6.35 6 4.7 6 3 6 C3 5.01 3 4.02 3 3 C1.68 2.67 0.36 2.34 -1 2 C-0.67 1.34 -0.34 0.68 0 0 Z " fill="#3A4652" transform="translate(194,562)"/>
<path d="M0 0 C0.66 0 1.32 0 2 0 C1.34 2.31 0.68 4.62 0 7 C-1.32 7.33 -2.64 7.66 -4 8 C-1.125 1.125 -1.125 1.125 0 0 Z " fill="#90A7D3" transform="translate(613,374)"/>
<path d="M0 0 C0.33 0.66 0.66 1.32 1 2 C-3 3.33333333 -7 4.66666667 -11 6 C-10.67 5.01 -10.34 4.02 -10 3 C-7.71484375 2.05078125 -7.71484375 2.05078125 -4.9375 1.3125 C-4.01839844 1.06113281 -3.09929687 0.80976563 -2.15234375 0.55078125 C-1.44207031 0.36902344 -0.73179687 0.18726563 0 0 Z " fill="#7A94C9" transform="translate(180,284)"/>
<path d="M0 0 C0.99 0 1.98 0 3 0 C2.814375 0.721875 2.62875 1.44375 2.4375 2.1875 C1.98004693 5.12826973 2.26483643 7.14103058 3 10 C0.86746245 7.40386733 -0.55075623 5.36932827 -1 2 C-0.67 1.34 -0.34 0.68 0 0 Z " fill="#89A1D0" transform="translate(739,197)"/>
<path d="M0 0 C0.33 0.66 0.66 1.32 1 2 C0.67 2.99 0.34 3.98 0 5 C1.32 5 2.64 5 4 5 C3.67 5.99 3.34 6.98 3 8 C1.68 7.67 0.36 7.34 -1 7 C-1.04254356 5.00045254 -1.04080783 2.99958364 -1 1 C-0.67 0.67 -0.34 0.34 0 0 Z " fill="#495463" transform="translate(202,568)"/>
<path d="M0 0 C0.66 0.99 1.32 1.98 2 3 C1.01 4.485 1.01 4.485 0 6 C-0.39013716 7.9896995 -0.73202649 9.99019869 -1 12 C-1.33 12 -1.66 12 -2 12 C-3.35384615 5.72307692 -3.35384615 5.72307692 -1.5625 2.0625 C-1.046875 1.381875 -0.53125 0.70125 0 0 Z " fill="#4267B5" transform="translate(463,241)"/>
<path d="M0 0 C0.66 0 1.32 0 2 0 C0.71480435 2.86697492 -0.57129254 4.97607712 -3 7 C-3.66 7 -4.32 7 -5 7 C-4.67 6.01 -4.34 5.02 -4 4 C-3.34 4 -2.68 4 -2 4 C-1.34 2.68 -0.68 1.36 0 0 Z " fill="#9EB0D9" transform="translate(750,175)"/>
<path d="M0 0 C0.625 1.875 0.625 1.875 1 4 C-1 6 -1 6 -4.125 6.125 C-5.548125 6.063125 -5.548125 6.063125 -7 6 C-7.33 5.34 -7.66 4.68 -8 4 C-5.525 4.495 -5.525 4.495 -3 5 C-3 4.34 -3 3.68 -3 3 C-2.01 3 -1.02 3 0 3 C0 2.01 0 1.02 0 0 Z " fill="#576268" transform="translate(639,98)"/>
<path d="M0 0 C0.66 0 1.32 0 2 0 C2 0.66 2 1.32 2 2 C2.99 1.67 3.98 1.34 5 1 C4.67 1.99 4.34 2.98 4 4 C2.35 4.33 0.7 4.66 -1 5 C-0.67 3.35 -0.34 1.7 0 0 Z " fill="#687074" transform="translate(85,225)"/>
<path d="M0 0 C2.125 0.375 2.125 0.375 4 1 C3.01 1 2.02 1 1 1 C0.731875 1.639375 0.46375 2.27875 0.1875 2.9375 C-1 5 -1 5 -4 6 C-2.84826645 3.53199953 -1.95216435 1.95216435 0 0 Z " fill="#98ADD6" transform="translate(549,174)"/>
</svg>
